<?xml version="1.0" encoding="UTF-8"?>
<svg width="1215" version="1.1" viewBox="0 0 2780 237" xmlns="http://www.w3.org/2000/svg" xmlns:cc="http://creativecommons.org/ns#" xmlns:dc="http://purl.org/dc/elements/1.1/" xmlns:rdf="http://www.w3.org/1999/02/22-rdf-syntax-ns#">
<metadata>
<rdf:RDF>
<cc:Work rdf:about="">
<dc:format>image/svg+xml</dc:format>
<dc:type rdf:resource="http://purl.org/dc/dcmitype/StillImage"/>
<dc:title/>
</cc:Work>
</rdf:RDF>
</metadata>
<path d="m3285.9 262.64c-276.1-149.42-397.5-262.99-881.2-164.54-658 133.87-833-51.814-1198.9-58.535-302.6-5.6015-476.5 145.08-696 145.08-219.3 0-365.7-176.03-582.5-181.35-226.9-5.6015-915.3-5.6015-915.3-5.6015l7019.7 2.8007h-955.6c-15.2 0-22.2 2.9408-25.8 7.702-30.6 39.91-190.5 218.88-554.2 156.84-201.8-34.449-414.2 41.591-612.7 119.87-153.6 60.776-436.5 64.977-597.6-22.126z" clip-path="url(#clipPath14)" stroke-width="1.1834"/>
</svg>
