<svg version="1.1" id="Layer_1" xmlns="http://www.w3.org/2000/svg" xmlns:xlink="http://www.w3.org/1999/xlink" x="0px" y="0px"
	 viewBox="0 0 1304.4 823.3"  xml:space="preserve" width="360" fill="#654EA3" >
<style type="text/css">
	.st0{display:none;fill:#FCFCFC;}
</style>
<g>
	<path d="M837.2,823.3c-4.3-8.2-6.1-17.4-10.5-25.6c-7.3-13.6-18.1-23.3-32-29.6c-2.3-1-3.5-1.8-2.4-4.7c9.5-25.3,10-51.2,6-77.3
		c-0.9,1.4-1.1,3.1-1.1,4.9c-0.3,14.9-3.2,29.5-5.1,44.2c-0.8,6.6-3.6,12.5-7.6,17.6c-0.9,1.2-1.6,3.5-3.6,2.8
		c-1.8-0.6-2.5-2.6-3-4.3c-0.3-1-0.1-2.3,0.2-3.4c11.7-37.9,12.5-76.7,9.6-115.8c-0.9-11.8-2-23.6-4-35.2c-1-5.5-0.1-10.2,4.9-13.6
		c3.6-2.5,2.2-6.4,1.9-9.7c-0.7-8.8-1.1-9.1-9.9-8.8c-3.7,0.1-7.3,0.3-11,0.4c-7.7,0.4-12.5,4.3-15.2,11.5
		c-4.7,12.8-8.4,25.9-12.5,38.9c-2.2,7-4.5,13.9-6.9,20.8c-1.3,3.7-3.8,6.6-6.2,9.6c-1.1,1.4-2.4,1.7-3.9,1.6
		c-5.2-0.2-10.3-0.2-15.5-0.4c-4.9-0.2-9.3-1.6-11.2-6.8c-1-2.7-2.8-2.3-4.8-2c-6.7,1.3-13.5,2.2-20.1,3.9c-4.2,1.1-4.4-0.6-5.1-4
		c-1.6-8.6,1.8-16.4,3.4-24.5c4.8-24.3,6.7-48.8,6.1-73.5c-0.2-8.8-0.6-17.6-2-26.5c-2.4,12.6-5,25.2-7.1,37.9
		c-2.1,13.1-6.2,25.5-12,37.3c-0.9,1.8-1.6,4.3-4.7,3.2c-3-1.1-2.8-3.6-2.4-5.9c0.5-2.6,1.7-5,2.7-7.5c10.4-27,15.1-55.2,16.1-84
		c1.5-45.6,6.4-91.1,7.6-136.7c0.9-33.6,2.9-67.3-2.2-100.8c-2-13.4-5.4-26.4-10.5-38.9c-1.5-3.7-1.4-5.4,3.1-6.4
		c8.6-2,17-4.7,25.5-7.1c4.4-1.3,7.3-4.3,7.9-8.7c2.4-16.3,6-32.4,6.7-49c0.5-10.8-2.8-20.2-8.1-29.3c-7-12.1-13.8-24.3-23.1-34.9
		c-1.6-1.9-0.4-2.9,0.9-4.1c1.4-1.3,2.5-1.9,4.1-0.1c10,11.4,23.1,19.7,33.1,31.1c2.1,2.4,3,2,4.5-0.7c7.2-12.8,9.5-27.3,15.5-40.5
		c2-4.4,4.1-8.7,5.9-13.2c2.1-5.1,5.8-1.7,8.5-1.3c2.9,0.5,0.7,2.9,0.2,4.3c-5.8,18.4-11.2,37-13.3,56.3
		c-1.3,11.9,0.4,22.9,9.4,31.8c3.2,3.2,4.9,7.3,5.6,12c1.8,10.8,4,21.6,6.1,32.4c1.1,5.9,4.4,9.8,10.1,11.8
		c4.2,1.5,8.5,3.1,12.4,5.2c6.1,3.2,8,14.5,3.5,19.8c-1.3,1.5-3,1.1-4.7,1.2c-21.3,0.5-42.6,2.2-63.8,4.9c-3.4,0.4-4.4,1.4-4.5,4.8
		c-1.5,42.9-3,85.9-4.8,128.8c-0.1,3.5,0.7,4.2,4,4c17-0.9,34-1.6,50.9-2.6c3.4-0.2,4.8,0.8,5.3,4c0.7,4.6,1.3,9.3,2.4,13.8
		c0.8,3.1-0.3,3.7-3,3.9c-11.5,0.7-22.9,1.5-34.4,2.4c-5.3,0.4-10.6,0.9-15.8,2.1c-4.2,1-6.7,3.4-7.4,7.7c-0.7,4.1-0.9,8.3-0.9,12.4
		c-0.3,30-0.3,60-0.9,90c-0.6,34.6-1.7,69.3-2.5,103.9c-0.1,5,0.5,10,1.7,14.8c0.8,3.5,2.9,3.4,4.9,1.2c2.9-3.2,5.5-6.8,6.9-10.9
		c13.6-40.2,29-79.8,38-121.4c5.6-25.8,12.3-51.5,14.3-78c0.4-5.3,0.1-10.7,0-16c-0.1-5.1,1.6-6.9,6.8-6.9c1.8,0,3.7,0.1,5.5,0.3
		c10.8,0.9,13.2,4.2,15.3,12.4c4.8,19.2,5.8,38.8,7.8,58.4c4.6,44.7,8.9,89.5,13.3,134.3c0.3,3,0.6,7.1,3.5,7.5
		c2.2,0.3,2.7-4,3.5-6.4c8.3-23.4,10.6-47.7,11.1-72.3c0.2-8.3,0-16.5,0-26.1c-2.6,3.1-2.8,5.7-3.3,8.2c-1.4,8.4-0.8,17-1.5,25.4
		c-0.5,6.1-2,11.9-5.1,17.5c-1.9-1.6-1.2-3.2-1.2-4.6c-0.1-48,0.3-96-0.3-144c-0.5-37.7-4.6-75.1-15.4-111.5
		c-1.1-3.7-2.3-7.3-3.6-10.9c-0.8-2.2-0.2-3.1,2.1-3.1c24,0,48-1,71.9,2.2c8.2,1.1,15.6,4.3,22.8,8.4c10.3,5.8,15.1,15.7,19.2,26
		c6.8,16.9,9.3,34.1,2,51.5c-3.1,7.3-7.2,14.3-10.7,21.4c-6.5,13.3-12,27.1-20.9,39.1c-3.3,4.4-7.2,8.3-10.1,13
		c-1.8,2.9-1.6,4.3,1.5,6.2c15,9.3,27.7,21.2,37.5,36c10.2,15.5,16.6,32.6,20.2,50.7c8.3,41.2,11.4,82.9,8.8,124.8
		c-2.2,34.9-2.2,69.5,3.3,104.1c1.4,9.1-0.1,17.9-3.1,26.5c-2.1,6.1-4.6,12.1-6.9,18.2c-0.6,1.6-1.2,3-3.4,3c-2.3,0-3.2-1.1-4-3
		c-3.4-8.6-3.4-17.7-3.4-26.6c0-17.8,0.9-35.6-0.6-53.4c-2.7-30.3-8.9-59.9-16-89.4c-4.3-17.5-8.7-34.9-13.9-52.1
		c-8.2-26.9-17.3-53.5-26.5-80.1c-1.3-3.9-4.2-6.8-6.6-9.9c-1.1-1.4-2.3-1.9-3.2,0.5c-3.4,8.2-1.4,15,6.2,19.1
		c5.1,2.7,7.1,7.3,8.4,12.2c11.4,44.9,22.4,89.8,30.2,135.5c4,23.6,8.1,47.3,11.2,71.1c2.1,15.9,0.6,32,0.7,47.9
		c0,0.8-0.2,1.8-0.6,2.4c-1,1.4-1.9,3.8-3.8,3.4c-2.1-0.4-0.9-2.9-0.9-4.3c-0.2-47.2-7.3-93.5-17.4-139.5
		c-8.1-37.1-18-73.7-26.1-110.8c-0.6-2.9-1.6-5.8-2.1-8.7c-0.4-2.8-1.7-3.5-4.4-3.3c-3,0.2-2.8,2.1-2.8,4.2
		c0.3,20,2.9,39.9,4.6,59.8c0.3,3.5,0.6,7,0.6,10.5c-0.1,9-3.4,13.8-12,16.9c-9.7,3.4-19.8,4.4-29.9,5.7c-6.7,0.8-6.6,0.8-5.8,7.4
		c2.9,25.2,4.9,50.4,7.2,75.6c3.6,39.8,8.4,79.5,20.6,117.9c0.9,2.8-0.1,4.1-1.5,5.9C843.2,823.3,840.2,823.3,837.2,823.3z
		 M832.7,410.3c0.4,0,0.7,0,1.1,0c0.8-16.4,1.7-32.8,2.3-49.2c0.9-22.3-0.4-44.3-9.6-65.1c-1.4-3.2,0.4-3.4,2.6-3.6
		c9.3-1.1,18.5-2.1,27.8-3.2c2.2-0.2,4.3-0.3,6.4,0.6c12.2,5.1,23.5,11.7,32.9,21.3c8.1,8.3,11.4,19,15.2,29.5
		c0.5,1.3,0.7,3.3,2.8,2.6c1.7-0.6,0.9-2.3,0.7-3.5c-1-6.1-2.1-12.1-3.2-18.2c-4.1-22.7-16-34.2-38.8-37.1c-16.6-2.1-33.3-1-49.9-1
		c-4.5,0-5.1,1.5-4.6,5.5c3.5,28.7,6.8,57.5,10.2,86.3C830,387,831.3,398.7,832.7,410.3z M861.1,436c5.8-4.2,9.3-9,12-14.2
		c14.5-28.7,15.9-58.3,5.1-88.4c-2.5-6.9-6.5-13.1-12.7-17.5c-1.1-0.8-2.3-2.5-3.8-1.5c-1.2,0.8-0.5,2.5-0.5,3.7
		c0,35.8,0,71.5,0.1,107.3C861.1,428.6,861.1,431.9,861.1,436z M787.1,519.1c-0.6-9.9-1.5-23-2.4-36.1c-0.1-1.6,0.2-3.6-2.1-3.9
		c-2.5-0.3-2.5,1.9-2.8,3.4c-6,22.9-11.9,45.7-17.8,68.6c-0.4,1.6-0.8,3,1.7,3c5,0,10,0.4,15-0.1c6.4-0.7,9.8-5.2,9.5-11.6
		C787.8,535.7,787.5,529,787.1,519.1z M724.7,166.5c-5.6,0.2-9,2.6-10.7,8c-3.2,9.7-3.7,19.9-5.7,29.8c-0.6,2.9,1.5,2.3,3.1,2.2
		c11.5-0.8,22.9-1.8,34.4-2.6c2.7-0.2,3.4-1,2.7-3.7c-2.5-9.1-4.6-18.4-7.1-27.5c-1.9-7-5.1-8.4-12.8-6.7c7.3,6.5,9.5,13.3,5.6,17.1
		c-3.3,3.2-11.3,3.2-14.3,0C716.1,179.2,718.1,172.2,724.7,166.5z"/>
	<path d="M402.2,511c-2.5,6.8-2.9,13.9-3.1,21c-0.7,21.9,1.1,43.6,5.8,65c0.7,3.2,4.1,6.6,2,9.2c-1.9,2.4-6.1,3-9.3,4.3
		c-6.2,2.5-12.4,4.8-18.6,7.3c-5.4,2.2-8.7,0.9-11.3-4.4c-1.2-2.5-1.5-5.1-1.3-7.8c2.5-47.4,4.9-94.8,7.4-142.2
		c0.6-10.6,0.6-21.3,3-31.8c2.9-13.3,5.5-15.6,19.2-15.5c0.3,0,0.7,0.1,1,0c2.4-0.6,6.3,1.8,6.9-1.4c0.4-2.3-3.8-2.5-6-3.4
		c-5.3-2-10.8-1.6-16.1,0.1c-3.8,1.2-6,4-7,7.8c-1.8,6.7-4.7,12.1-12.9,12.2c-3.1,0-1.2,2.5-0.9,3.7c4.3,16,5.9,32.2,3.6,48.5
		c-5.1,37-23.5,66.5-52.7,89.2c-24,18.7-52.2,26-82.1,27.2c-25.2,1-49.6-2.8-72-15c-26.1-14.1-43.5-35-47-65.3
		c-2.8-23.9,5.3-45,18.4-64.4c19.5-28.9,47.1-46.6,80.3-55.8c13.7-3.8,27.8-4.1,41.5,0.3c21,6.8,32.7,22,37.5,43
		c7,31.1-4.5,60.1-31,77.9c-9.2,6.2-19.6,9.3-30.6,9.6c-15.1,0.4-24.5-7.8-27.2-23.7c-2.1-12.5-0.1-24.2,7.7-34.6
		c0.8-1,1.2-2.8,2.8-2.3c1.5,0.5,1.2,2.3,1.3,3.5c0.7,7.3,1.2,14.6,1.8,21.9c1.9,21.8,15.8,28.7,34.2,16.8
		c28.8-18.6,36.9-48.5,24.3-79.9c-6-15-19.6-21.2-35-21.5c-25.2-0.5-46.9,10.1-67,24.1c-13.3,9.3-24,21.2-30.9,36
		c-12.8,27.6-8.6,53.8,7.3,78.8c9.2,14.5,22.5,23.6,38.9,27.9c28.9,7.6,57.6,6.1,85.4-4.6c24.8-9.5,41-27.8,49.9-52.6
		c6.8-19,12.2-38.4,12.7-58.8c1.5-54.3-24.2-91.4-77.6-107.5c-35.3-10.6-70.2-7.5-104.6,4.3c-35.9,12.3-66.7,32.3-91.7,61
		c-18.5,21.2-31.7,45.1-37.3,72.9c-2.8,14-0.7,27.7,3.9,40.8c15.5,44.3,45.4,74.6,90.5,88.8c19.8,6.2,40.4,6.2,60.9,7
		c31.7,1.2,62.9-1.5,93.5-10.4c8-2.3,14.8,2.7,22.9,4.4c-3.5,4-7.6,6.1-11.5,8.4c-15.9,9-33.4,13.2-51.2,16
		c-33.9,5.3-67.7,6.3-101.3-1.5C92.9,637,60,621.3,33.7,594.2C1.9,561.5-7.5,522.6,5.9,479.1c13.4-43.8,41.8-76.7,78.8-102.6
		c27.3-19.1,57.1-32.7,90.3-38.3c0.8-0.1,1.7-0.1,2-1.7c-12.5,0.3-22.4-6.3-32.5-12.2c-2.2-1.3-3.9-1.4-5.8,0.2
		c-3.4,2.9-6.8,5.9-10.4,8.5c-5.6,4-11.6,2.4-15.3-3.6c-4-6.5-2.7-11.5,3.6-15.1c3.9-2.2,8-3.3,12.5-2.7c9.7,1.4,17.7-1.8,24.6-8.5
		c14.1-13.7,28-27.5,42-41.3c0.5-0.4,1-0.9,0.5-2.1c-3.8,0-7.5-1.3-11.1-3c-3.1-1.5-4.2-0.2-4.2,3c0,2.6,1.5,5.8-1.3,7.4
		c-3.8,2.2-8.1,3-12.5,2.3c-2.5-0.4-3.2-2.3-3.1-4.4c0.1-3.4-0.2-7.1,3.8-9c1.7-0.8,5,0,4.5-3.4c-0.4-3.1-2.6-4.8-5.6-5.7
		c-4.3-1.3-8.6-0.8-12.9-0.9c-9.5-0.2-19-1.3-28.3-2.8c-2-0.3-5.4,0.5-4.6-4c0.6-3.9,3-3.2,5.5-3c14.4,1.2,28.9,2.3,43.3,3.6
		c3.1,0.3,5.1-0.4,6.6-3.1c1.9-3.3,4-6.5,6-9.8c3.7-5.8,4.8-11.7,2.8-18.5c-1.4-4.6-1.9-9.5-1.1-14.3c0.9-5.5,3.8-9.1,9-11
		c7.8-2.9,16-2.8,24.2-3c2.4,0,3.1,1.2,3.2,3.5c0.1,2.5-1.3,2.7-3.1,2.7c-5,0.2-10,0.3-15,0.7c-7.1,0.6-10.4,4.6-9.8,11.6
		c0.8,9.7,0.8,9.9,10.4,8.8c15.4-1.7,30.5-5.5,45.6-8.8c4.9-1.1,6.2-4.8,6.4-9c0.4-7,2.2-13.8,1.4-20.9c-0.5-4.5,2.7-3.5,5.2-3.6
		c2.7-0.1,4.7-0.2,4.7,3.7c0,9.5-1,19-3,28.2c-1,4.6-4.2,7.8-8.2,10.3c-2.1,1.3-4.3,2.5-6.3,4c-5.1,3.7-6.6,10.6-2,14.7
		c6.2,5.5,7.4,12.4,8.2,19.7c2.5,22.2,4.3,44.5-0.9,66.6c-0.7,2.8-0.1,5.6,0.3,8.4c1.1,8.7-0.5,11.2-8.8,14.2
		c-1.2,0.4-2.7,0.1-3.8,2c10,1.3,19.5,3.9,28.9,6.9c9.7,3.1,19,7.1,28,11.9c8.8,4.7,17.1,10.2,24.7,16.9
		c7.7,6.7,14.2,14.5,20.3,22.6c5.8,7.8,8.2,17.8,15.2,24.8c0.2-7.6-2.5-14.6-3.4-21.8c-0.2-1.6-1.8-3.7,0.9-4.7
		c3.1-1.1,3.1,1.8,3.8,3.3c5.9,12.2,5.9,12.1,19.3,9.3c5.7-1.2,11.4-2.3,17.2-3.2c7.3-1.2,13.9,2.6,16.6,9.6
		c2.9,7.6,5.3,15.4,7.3,23.3c0.3,1.4,0.3,3.2,2.4,3.3c2.3,0.1,2.1-1.9,2.3-3.2c1.7-9.3,4.4-18.5,5.6-27.9c0.9-7.4,3.5-10,11-10.4
		c10.9-0.6,21.5-2.6,32.1-4.5c3.4-0.6,4.5-1.9,4.7-5.5c1.2-25.5,3.3-50.9,4.5-76.3c0.8-17.6,21.1-25.6,34.4-18
		c3.2,1.8,6.1,4,9.1,6.1c4.7,3.2,4.8,3.3,5.8-2.5c2.7-15.9,4.5-32,6.2-48.1c1.9-17.5,5.6-34.5,13.2-50.5c0.8-1.8,1.6-3.6,3.6-5.4
		c0,6-1.5,11.4-2.6,16.7c-5.8,27.7-10.6,55.6-11.4,84c-0.3,10.8,0.9,21.6,2.4,32.4c0.2,1.1,0.1,2.4,1.8,3
		c0.5-11.2,0.9-22.3,1.5-33.4c1.4-25.3,4.3-50.4,10.1-75.1c3.4-14.4,7.5-28.6,13-42.4c1-2.5,1.8-4.3,5.2-4.3c3.7,0.1,3,2.7,3.8,4.7
		c1.3,3.9,0.9,7.8,0.6,11.8c-3.4,38.8-8.5,77.5-9,116.6c-0.3,23.3,1.1,46.6,3.2,69.9c2.9,32.3,3,64.5,2.4,96.9
		c-0.2,10.8-0.4,21.7-0.6,32.5c-0.2,7.9-3.5,10.5-11.3,8.7c-6-1.4-11.9-2.9-18.4-3.2c3.6,8.1,8.1,14.5,16.9,16.8
		c7.8,2.1,15.3-2.6,16.6-10.6c0.9-5.4,1.1-10.9,1-16.4c-0.1-29.7-0.5-59.3-0.4-89c0.2-42.1,1.8-84.3,3.1-126.4
		c0.9-30.8,2.2-61.6,3.3-92.4c0.2-4.7,0.7-9.2,4.1-13.6c1.3,2.9,0.9,5.6,1.1,8.1c3.5,44.8,2.1,89.6,0.2,134.3
		c-1.5,35.1-3.7,70.2-4.4,105.3c-0.1,3.5,1.2,4.1,4.3,4.1c8-0.2,16-0.2,24,0c9.4,0.3,12.5,4.1,10.9,13.4c-6.8,38.7-8.6,77.8-8.5,117
		c0,18.8-1.1,37.6,0,56.4c1.1,19,5.5,37.5,8.7,56.2c0.6,3.6,0,4.4-3.6,4.6c-12.8,0.8-25.6,1.9-38.4,2.9c-5.6,0.4-5.7,0.3-3.1-4.9
		c4-7.8,8.3-15.5,10.9-24c4.9-15.5,3.2-31.4,3.1-47.1c-0.2-19.2-0.1-38.3,0-57.5c0.2-25.8,0.8-51.7-0.5-77.5
		c-0.4-7.7-2-15.4-5.2-22.8c-0.5,7.6-1,15.3-1.4,22.9c-1,20-1.9,39.9-2.6,59.9c-0.1,3.1-1,3.9-4,3.8c-4.1-0.1-8.3,0.3-12.5,0.7
		c-10.5,1.1-20.7,0.9-29-9.7c0,6,0,10.4,0,14.9c0,9-0.1,18,0.1,27c0,2.4-0.7,3.6-3.1,4.3c-10.6,2.9-21.1,6-31.7,9
		c-4.6,1.3-8.2-0.2-10.5-4.4c-2.3-4.2-4.6-8.4-6.4-13c-1.7-4.3,1.8-4.9,3.9-6.1c2.7-1.4,2.6,1.6,3.3,3c0.8,1.5,1.4,3,2.3,4.4
		c6.2,10.3,8.5,11.1,19.9,6.9c15.7-5.8,15.6-6,14.7-22.8c-0.6-11-0.5-22-0.6-33c0-2.9-0.3-5.6-1.5-8.3c-0.5-1.1-1-2.3-2.5-2
		c-1.6,0.3-1.3,1.6-1.4,2.8c-0.3,11.8-1,23.6,0.8,35.4c1.1,7.4-0.3,9.1-7.8,8.9c-3.9-0.1-7.1,1.6-10.5,2.7c-8,2.5-13.7-1.2-14.2-9.9
		c-0.4-5.5-0.2-11-0.1-16.5c0.2-27.8,0.3-55.7,0.5-83.5c0.2-31,0.4-62,0.5-93c0-8.7-0.5-17.3-1-26c-0.4-6.8,4.8-10.2,8.5-14.5
		c0.3-0.4,1.4-0.6,1.8-0.4c4.9,2.8,10.8,3.8,13.4,10.3c5.6,14.1,10,28.6,15.1,42.8c2.8,7.6,5.7,15.2,10.5,21.9
		c1.9-0.5,1.4-1.8,1.4-2.9c0-9-0.1-18,0.1-27c0.1-3.1-0.8-5.6-3-7.6c-7-6.6-10.8-15-14.4-23.7c-2.3-5.5-4.8-11-7.4-16.4
		c-2.2-4.7-6.1-7.9-10.7-10.1c-9.9-4.7-19.9,1.7-20.1,12.9c-0.5,31.5-0.7,63-1.3,94.5c-0.2,8.6-1.2,17.3-1.7,25.9
		c-0.2,3-1.1,4.2-4.3,4.5c-3.8,0.4-3.6-2.2-4.1-4.3c-2.5-9.5-4.9-19-7.3-28.5c-0.8-3.4-2-4.9-6.1-3.8c-7.1,1.8-14.3,3-21.6,4.1
		c-2.8,0.4-4,1.7-4.4,4.4c-2.8,16.1-5.7,32.1-8.5,48.2c-0.2,1.4-1.7,3.6,1,4.1c2,0.4,2-1.9,2.4-3.2c3.5-12,7.4-23.9,9.9-36.1
		c1.6-7.4,6.1-11,13.8-11.1c5.2-0.1,9.4,4.2,11.2,10.9c4.5,16.4,5.2,33.2,6.3,50c3.3,48.4,3.5,96.9,7,145.2
		c3.2,43.6,11.1,86.5,22.1,128.8c0.9,3.4,1.2,6.9,1.2,10.4c0,2.7,1.2,3.1,3.4,2.7c3.4-0.6,6.9-1.2,10.3-1.8c1.7-0.3,2.4,0.7,3,2
		c0.7,1.5-0.2,2.2-1.4,2.6c-18.9,6.4-35.1,18.3-53.3,26.2c-6.9,3-14.1,5.1-21.4,6.9c-3.3,0.8-4,0.1-3.4-3.3c7-41.3,6.1-83,5.3-124.6
		c-0.5-25.3-1.6-50.6-0.4-75.9c0.1-1.8,0.3-3.6,0.6-6.5c2,5.7,1.9,10.5,2.2,15.2c2.4,33.2,4.3,66.5,4.8,99.8
		c0.4,25.5,0.3,51,0.3,76.4c0,1.5-1,3.7,1,4.4c1.5,0.6,2.6-1.1,3.7-2.1c6.5-5.4,7.8-9.8,4.9-17.6c-3.2-8.6-3.3-17.6-3.6-26.6
		c-1.3-41.6-2.7-83.2-3.6-124.9c-1-45.5-2.7-90.9-2.4-136.4c0-2.5,2.3-6.8-2.4-7.4c-4.8-0.5-3.4,4.1-3.8,6.6
		c-5.2,30-10.2,60.1-15.1,90.1c-0.5,2.9-1.3,4.8-4.7,4.1c-0.5-0.1-1,0-1.5,0c-12.4,0.2-14.4-1.5-16.2-13.7
		c-1.9-13.4-4.6-26.6-8.1-39.6C403.9,512.5,403.7,511.5,402.2,511z M244.4,261.5c-0.2-4.3,0.1-8.9-0.7-13.2
		c-3.7-18.9,1.4-14.7-17.4-17.4c-0.8-0.1-1.7-0.2-2.5-0.2c-9.6-0.7-27.1,9-31.1,17.3c-1.4,2.9-1.5,5.2,2.8,5.2c2.5,0,5,0.3,7.5,0.4
		c3.4,0,3.9,1.1,2.3,4.2c-4.1,8.1-9.3,15.4-15.2,22.2c-4.6,5.3-9.8,10-14.7,15c-5.3,5.4-4.5,13.2,1.3,14.7
		c10.4,2.8,20.9,5.4,31.9,5.2c7-0.1,14,0.8,20.9,1.8c3.2,0.4,4.7-0.2,5.8-3.4C241.2,296.5,244,279.3,244.4,261.5z M409.5,439.9
		c-0.1,0.5-0.3,0.8-0.2,1.1c4,21.2,8.1,42.4,12.1,63.6c0.2,1,0.2,2.2,1.4,2.3c1.6,0.1,1.6-1.3,1.8-2.5c1.8-8.3,3.5-16.6,5.6-24.8
		c0.9-3.4-0.1-4.6-3.2-5.7c-6.7-2.3-10.5-7.3-11.7-14.2c-0.8-4.4-1.3-8.9-2-13.3C412.9,444,412.1,441.5,409.5,439.9z M527,475.2
		C527,475.2,527,475.2,527,475.2c0.1,5,0.1,10,0.1,15c0,10.3,0,10.2,9.8,7c2.4-0.8,3.6-1.6,2.8-4.5c-3.4-12.9-6.6-25.8-9.8-38.7
		c-0.3-1.1-0.2-2.6-1.9-2.2c-1.3,0.3-0.9,1.6-0.9,2.5C527,461.2,527,468.2,527,475.2z"/>
	<path d="M1107.1,243.4c1.1-2.9-1.4-4.7-2.2-7c-0.9-2.7-2.4-5.1-3.3-7.8c-2.1-6.7,0-10.1,6.8-11.3c10.2-1.8,20.4-3.3,30.5-5.3
		c4.5-0.9,5.1,0.7,4.9,4.5c-1.1,30.5-0.5,61,1.2,91.4c2.6,45.9,5.1,91.8,11.5,137.4c2.6,18.1,6.5,36,11.8,53.6
		c0.3,1.1,0.3,2.3,2.3,3.1c2.9-7.4,5.1-14.9,5.9-22.8c1.9-19.5,0.2-39-0.7-58.4c-2-45.8-3.6-91.5-4.9-137.3
		c-0.6-19.6,2.5-38.9,3.5-58.3c1-19.5-1.5-38.9-3.8-58.2c-0.7-5.8-1.7-11.5-2.6-17.3c-1.3-8.7,1.6-12.7,10.2-14.4c5.2-1,5.1-1,1.9-5
		c-8.8-11.1-17.6-22.2-26.1-33.5c-2.7-3.6-4.9-4.5-9-2.1c-14.4,8.6-29,17-43.6,25.4c-0.3,0.2-0.6,0.4-0.9,0.5
		c-2.7,0.7-5.8,4.8-7.9,1.7c-1.9-2.9,1.7-6,4.2-8c10.8-8.4,21.7-16.5,32.6-24.7c7.5-5.6,8.7-9.5,3.8-17.2
		c-6.6-10.4-13.8-20.5-24.1-27.7c-9.6-6.7-16.3-16-24.1-24.5c3.8-3,6.6-3.2,8.7,1.5c1.3,3,3.9,4.9,6.3,7c6.3,5.2,13.3,9.4,20.4,13.5
		c11.4,6.6,23,4.7,32.3-4.8c8.5-8.7,16.8-17.5,25.1-26.5c2.2-2.4,3.8-2.7,6.8-1.4c8.6,3.8,16.4,8.9,24.2,14c1.4,0.9,2.5,2.2,4.7,2.3
		c-1.2-3.8-0.4-7.1,1.8-10c2.5-3.4,5.8-4.3,9.7-2.8c3.7,1.4,5.4,3.9,4.7,8.1c-0.4,2.1-2.5,5.1-0.3,6.3c3.2,1.8,4.9-1.8,6.8-3.7
		c5.7-5.8,11.3-11.8,16.7-17.8c2.2-2.5,4.2-2.9,7.1-0.9c-5,6.1-9.6,12.4-14.8,18.2c-13.3,15.1-8.2,29.2,5.6,40.9
		c13.7,11.6,29.1,20.5,45,28.6c0.7,0.4,1.3,0.9,2.5,1.6c-3.6,1.7-6.6,2.5-10.3,1.1c-10.6-4-20.8-9-30.4-15
		c-10.5-6.4-22.1-5.8-31.5,1.9c-8.9,7.3-16,16.1-20.8,26.5c-2.1,4.5-5.9,4.9-9.6,6c-1.5,0.4-2.2-0.4-2-1.9c0.2-2.1-0.1-4.6,0.9-6.3
		c6.7-12.3,13.1-24.7,25.3-32.8c7.2-4.7,8-10.5,3.4-18.1c-2.2-3.6-4.2-7.2-6.3-10.8c-0.8-1.5-1.9-3.2-1.2-4.7
		c2.4-4.9-1.3-6.4-4.3-8.4c-8.3-5.6-16.3-11.5-25.6-15.4c-2.8-1.2-4.4-0.9-6.2,1.6c-5.5,7.3-10.7,15-17.7,21
		c-9.2,7.9-8.1,17.3-5.1,27.4c3.5,11.8,9.9,22.1,15.9,32.7c4.8,8.6,10.1,16.8,14.9,25.4c2.4,4.4,5.9,6,10.6,5.9c3-0.1,6-0.1,9,0.2
		c5.8,0.7,7.6,3.8,5.2,9c-7.4,16.3-11.2,33.5-12.4,51.2c-0.9,14.3-0.9,28.6-1.4,42.9c-1.1,36.3-1.9,72.6-3.4,108.8
		c-1.4,34.2-0.8,68.2,1.4,102.3c0.6,8.6,0.2,17.3,1.5,25.9c0.2,1.4-0.3,3.4,2,3.4c2.3,0,1.7-2.1,1.9-3.4c2.5-15.9,1.5-31.9,1.6-47.9
		c0.5-44.8,0.3-89.6,0.8-134.5c0.4-35.8,3.8-71.5,7-107.2c0.7-7.6,1.6-15.2,2.2-22.9c0.6-7.1,3.4-13.5,5.7-20.1
		c0.6-1.8,1.9-2,3.6-1.9c1.7,0.1,2.8,0.7,3,2.5c0.3,2.5,0.6,5-0.2,7.4c-9,30.2-10.3,61.3-11.4,92.4c-2.1,62.9-2.6,125.9-2.7,188.9
		c-0.1,19.5-0.7,38.9-3.6,58.3c-2.3,15.2-7.6,29.3-14.9,42.6c-4.8,8.6-16,11.1-25.4,5.8c-10.5-5.9-17.8-14.9-23.5-25.3
		c-10.5-19.1-14.2-40.1-15.9-61.4c-1.7-20.9-2.8-41.9-3.9-62.8c-0.3-4.7-1.4-8.9-3.9-12.7c-3.6-5.6-4.5-11.4-4-18
		c3.1-43.9-5.9-85.1-29.2-122.8c-0.7-1.2-2.2-2.5-1-4c1.2-1.6,3.1-0.9,4.6-0.5c5.1,1.2,7.2,5.5,9.6,9.5
		C1102.1,239,1103.2,242.5,1107.1,243.4c0.3,0.2,0.5,0.4,0.7,0.7c0.1-0.1,0.2-0.3,0.2-0.4C1107.8,243.1,1107.5,243.1,1107.1,243.4z"
		/>
	<path d="M1023.3,317.5c5.1-1.3,10.2-3,15.4-3.9c18.5-3.5,33,4.9,46.4,16.1c7.6,6.3,11.2,15,14.4,24.1
		c10.4,29.5,14.8,59.9,15.2,91.2c0.6,39.5-0.2,79-4.7,118.2c-4.3,38.4-10.7,76.4-20.9,113.8c-7.1,26-34.4,26.2-48.7,15.3
		c-15.2-11.6-24.7-27-30.7-45.1c-10.8-33.1-15-67.2-15.9-101.8c-0.1-2.9,0.3-5.6,1.1-8.4c0.5-1.9,2.2-2.7,3.7-3
		c2.3-0.3,1.7,2,2.1,3.3c3.3,9.7,1.8,19.8,2.2,29.8c0.8,24.3,4.6,48,12.9,71c0.4,1.1,0.9,2.1,2,3.1c0-1.2,0.1-2.3,0-3.5
		c-4.7-41.9-9.4-83.8-14-125.6c-0.4-3.3-1.4-4.8-4.6-3.7c-4.4,1.5-5.7-0.8-6.8-4.5c-6.3-20.5-9.6-41.5-12-62.7
		c-5.7-50-6.2-100.1-2.7-150.2c1.3-19.1,3.7-38.1,9.7-56.5c1-3.2,2.2-6.3,4-9.1c0.5-0.8,0.6-2.2,1.8-2.1c1.5,0.1,1.4,1.6,1.7,2.7
		c0.8,2.6,1.1,5.1,0.7,7.8c-3.3,24.9-6.4,49.9-9.7,74.8c-4,30.7-3.6,61.5,0.3,92.2c2.3,18,4.3,36.1,6.4,54.1c0.1,1,0.2,2,0.5,2.9
		c0.4,1.3,1.4,2.6,2.8,2.5c2.1-0.2,1.1-2.1,1.1-3.2c-0.5-25,0.1-50,1.1-74.9c0.9-21.3,3.5-42.2,12.1-61.9
		c4.1-9.3,11.1-14.6,22.4-15.8c-3.7,4.6-6.9,8.5-10,12.4c-0.2,0.3-0.6,0.9-0.5,1C1022.6,318.3,1023,318.1,1023.3,317.5z M1075,519.5
		c0.1-58.1,1.2-116.3-6.3-174.2c-1.5-11.9-8-17.5-20-16c-6.1,0.7-8.9,3.7-9.2,9.8c-2.4,52.8-4.2,105.5-3.4,158.4
		c0.8,54.1,5.8,107.8,13.1,161.3c1.7,12.3,6.8,22.5,18.2,28.8c2.3,1.3,3.6,1.4,4.6-1.2c3.6-9,6.9-17.9,4.5-28.1
		c-1.5-6.5-1.6-13.2-1.5-19.9C1075,598.8,1075,559.1,1075,519.5z"/>
	<path d="M1101.3,683.5c0.4-25.4,4.9-50.4,8.1-75.4c1.4-10.9,3.2-21.7,4.7-32.6c1.4-10.2,3.6-12.6,13.8-14.5
		c9.7-1.8,19.4-3.3,29.3-3.1c6.4,0.2,7.9,2.3,5,8.1c-6.6,13.3-13.5,26.4-20.1,39.6c-12.3,24.7-22.8,50.1-26,77.7
		c-2.4,20.4,0.8,40.2,11.3,58.3c3.7,6.4,9.5,10.6,16.5,13.1c22.7,8.4,52.4,1.6,68.9-15.8c5.4-5.7,8.6-12.6,11.3-19.8
		c12.6-33.9,19.9-69,24.6-104.8c2.9-22,5.8-43.9,7.4-66c0.9-12.4-2.1-24.5-3.3-36.8c-0.5-5.7-2.3-10.7-5.2-15.4
		c-0.5-0.8-0.7-2.2-1.9-1.9c-1.5,0.3-1.2,1.8-1,2.9c0.8,7,1.7,13.9,2.4,20.9c2.9,28.6-0.4,56.9-3.3,85.2
		c-2.5,24.2-6.8,48.1-13.2,71.6c-4,14.6-8.4,29.1-14.9,42.9c-12.9,27.5-40.1,34.4-64.1,28.8c-11.9-2.8-18.2-12.3-22.8-22.8
		c-6.7-15.3-6.9-31.4-5.2-47.6c2.1-20.3,9.6-39,17.9-57.5c5.7-12.7,11.9-25.3,17.9-37.9c2.1-4.4,5.5-7.9,8.4-11.7
		c1.3-1.8,2.9-1.8,4.8-0.9c2.6,1.3,1.4,2.8,0.8,4.5c-7.7,19.9-17.5,38.9-25.7,58.5c-6.4,15.2-13.6,30-16.2,46.5
		c-2.8,18,0.9,34.9,9.3,50.7c7,13.1,19.7,14.9,32.9,13.5c14.7-1.5,24.6-9.4,30.8-22.9c7.5-16.3,15.6-32.5,19.3-50.2
		c3.4-16.5,5.9-33.1,8.2-49.8c3.2-23.1,5.5-46.3,7.4-69.6c2.1-26.5-2.3-51.8-13.4-75.9c-1.5-3.2-1.7-4.7,2.4-5.8
		c4.8-1.3,5.1-5.7,5-9.8c-0.8-24.5-1.6-48.9,0.3-73.4c1.2-16.1,8.8-29.3,18.7-41.1c7.5-9,23.8-7.3,32.5,2.5
		c7.1,8,10.1,17.9,11.6,28.2c1.2,7.8,1.5,15.6-1,23.3c-3.3,10.3-15.3,13.6-23.5,6.6c-1.2-1-1-1.8-0.2-2.8c1.3-1.7,2.3-3.7,3.9-5.2
		c10.6-10.3,6.2-29.8-7.4-38.9c-3.1-2-2.8,0.9-3.3,2.3c-5.5,15.7-9.2,32-13.5,48c-2.3,8.7-5.3,17.2-6.8,26.1c-3,18,2,34.4,10.9,49.6
		c10,17.1,20.4,33.9,30.9,50.7c4.2,6.6,5,13.9,6.3,21.3c3.2,18.5,7,37,9.8,55.5c3.6,23.8,2.8,47.4-5,70.5
		c-8.9,26.2-24.9,47.3-46.3,64.3c-14.5,11.6-30,21.7-47.8,27.7c-18.1,6.1-36.6,6.9-55.2,3c-21.7-4.5-33.7-18.9-39.5-39.3
		C1103.6,719.4,1101,701.7,1101.3,683.5z"/>
	<path d="M915.1,131.8c-3.5-1.3-5.8-2-8.1-3c-3.6-1.7-6.4-4-4.8-8.5c1.3-3.8,6.2-6.4,10.1-5.7c6.7,1.3,10.6,6.9,10.4,15.2
		c3.9,0,2.8-2.2,2.4-4.7c-2.6-14.1-10.3-25.4-18.8-36.4c-0.8-1.1-2.6-2.3-1.8-3.8c0.8-1.5,2.7-0.6,4.1-0.6c14.7-0.1,29.3-0.1,44-0.1
		c1.3,0,2.5,0,5.1,0c-4.7-4.4-9.6-7.8-6.6-14c1.2-2.3,3.9-3,6.5-3c3.6,0,6.4,2.7,9.2,9.1c3.3-6.5,6.4-12.5,9.3-18.6
		c2.4-4.9,4.6-10,6.8-15c0.8-2,1.7-3.1,4.1-2.1c2.3,1.1,2.1,2.4,1.2,4.4c-5.5,11.5-9.1,23.6-11.6,36c-1.2,5.8-0.1,10.8,2.9,15.7
		c12.3,20.1,29.5,35.4,48.2,49.3c2.9,2.2,6.2,4,8.5,6.9c0.8,1,2,2.4,1,3.6c-1.1,1.3-2.4-0.1-3.5-0.8c-14.2-8.3-28.5-16.5-42.7-25
		c-3.7-2.2-5.5-1.8-7.8,1.9c-5.3,8.5-11.2,16.5-16.8,24.8c-4.1,6-4.2,6.1,2.1,10.1c13.2,8.4,26.9,16,40.7,23.4
		c4.7,2.5,9.4,5.1,14.1,7.4c2.6,1.3,3.5,2.7,2.2,5.5c-1.5,3.2-3.2,1.1-4.8,0.4c-11.4-5.5-22.8-11-34.1-16.7
		c-9.5-4.8-19.2-4.8-29.1-1.4c-8.1,2.8-12.3,11.8-9,19.7c1.4,3.4,3.1,6.6,4.7,9.9c3.4,6.8,3.4,6.9,11,5.2c5.4-1.2,10.7-2.5,16-3.7
		c0.9-0.2,1.9-1.1,2.8-0.4c1.3,1,0.2,2.2-0.1,3.2c-12.1,38.2-17.3,77.8-14.5,117.3c3.5,49.3,5.5,98.7,8.9,148.1
		c0.6,8.8,2.7,17.4,4.5,26c0.6,2.8,1.2,5.6,1.3,8.4c0.3,5.8-1.8,8.8-7.6,9.9c-9.4,1.8-18.9,1-28.4,1.9c-2,0.2-2.4-1.1-2.9-2.7
		c-0.9-3.1-0.1-5.9,0.6-8.8c7.6-30.3,7.3-61.1,5.8-91.9c-1.7-33.8-3.3-67.5-3.8-101.3c-0.4-29.7-2.7-59.2-10.4-88.1
		c-2.5-9.3-0.9-11.9,8.4-14.3c2.2-0.6,2.3-1.2,1.4-3c-2.8-5.3-5-11-8.3-15.9c-3.9-5.8-4.4-11.6,0.2-16.5c6.7-7,4.3-12.5-0.3-19.3
		c-7.7-11.4-16.5-20.8-30.4-24.2c-5.4-1.3-10.6-0.4-15.9,0.3c-6.9,0.8-13.8,2-20.8,3c-1.8,0.3-3.6,0.8-4-2.1
		c-0.3-2.5,0.8-3.2,2.8-3.7c13.1-3.2,26.2-6.4,39.3-9.6C910.8,133.1,912.4,132.6,915.1,131.8z M924.3,90.8c0.1,0-0.4-0.1-0.9-0.1
		c-2.4,0-5.6-1.3-7,0.9c-1.2,1.8,1.3,4.2,2.3,6.2c10.4,19.4,23.4,37.1,35,55.8c1.8,3,3,2.5,4.3-0.2c3.2-6.4,6.6-12.7,9.7-19.1
		c5.2-10.5,2.7-19.1-4.9-27.2C952.5,95.9,939.6,91.4,924.3,90.8z"/>
	<path d="M621.1,60.3c8.5,5.8,18.4,7.3,28.2,8.9c5.4,0.8,10.8,2.1,16.2,2.9c2.8,0.4,3.7,1.5,3.6,4.2c-0.1,2.6-1.7,2.8-3.7,2.9
		c-14.6,0.4-29.2,0.8-43.9-1c-12.9-1.6-23.9,3.5-33.1,12.9c-5.2,5.4-6.9,11.2-7.1,18.6c-0.4,15.6-1.8,31.3-2.8,46.9
		c-0.2,2.8-0.3,5.7-0.9,8.4c-0.7,3.6-4,6.1-6.8,6.6c-2.6,0.4-1.6-3.6-2-5.5c-3.5-17.9-4.2-36-5.6-54.1c-0.3-3.4-1.1-4.6-4.8-5
		c-19.3-2.1-38.6-1.9-57.9-1.7c-2.8,0-5.4,0.6-5.5-4c-0.1-4.4,1.7-5.3,5.4-5.4c13.7-0.4,27.5-0.5,40.5-5
		c18.9-6.5,37.8-13.6,49.9-31.1c7.2-10.3,12.5-21.6,16.4-33.5c2.8-8.8,5.6-17.6,10.4-26.1c2.6,2.6,2.5,5.6,2.7,8.3
		c1.3,15.1-0.5,30-5.4,44.3c-1.6,4.7-0.9,6.8,4.2,6.9l-0.1-0.1c0.4,1,1.2,1.1,2.1,1.1L621.1,60.3z"/>
	<path d="M642.5,675.3c-3.9-3.3-5.5-7.8-7-12.3c-5.6-17.1-7.6-34.8-9-52.5c-3.4-42.6-3.8-85.2,1-127.7c1.4-12.4,3-24.8,7.4-36.6
		c1.2-3.2,2-6.7,5.8-9.9C629.1,516.7,626.6,596,642.5,675.3z"/>
	<path d="M755.7,401.5c2.8,3.8,3.2,8.2,3.4,12.7c0.8,15.3-1.8,30.2-4.5,45.1c-7.5,40-18.3,79-33.1,116.9
		c-2.9,7.4-6.2,14.7-10.4,21.5c-0.5,0.8-1,2-2.2,1.5c-1.4-0.6-0.8-1.8-0.4-2.9c7.6-20.9,14.1-42.2,20.7-63.5
		c8.2-26.4,13.6-53.5,17.7-80.8c2.4-15.8,4.8-31.6,7.2-47.4C754.4,403.5,754.3,402.3,755.7,401.5z"/>
	<path d="M624.7,384.2c-0.6,6.7-1.3,12.2-2.6,17.7c-0.9,3.9-3.2,6.3-7.2,6c-4.3-0.3-6.2-3.3-5.6-8.2c1.1-8,2.3-16.1,3.5-24.1
		c0.2-1.4,0-3.2,2.1-3.4c1.9-0.2,3.7-0.7,5.5,1C624.2,376.6,625.9,380.3,624.7,384.2z"/>
	<path d="M619.1,59.4c-0.3-7.6,3.7-12.4,11.8-13.8c4.5-0.8,8.9,1.9,9.9,6.2c0.9,3.9-1.1,6.7-6,8.2c-3.6,1.1-7.2,1.1-10.8,0.3
		c-0.9-0.2-2-1.7-3,0c0,0,0.1,0.1,0.1,0.1c0.4-0.9,0-1.3-0.8-1.7c-0.7-0.4-1,0.1-1.4,0.6L619.1,59.4z"/>
	<path d="M1136.9,39c-0.3,3.2-2.6,5-6.3,4.7c-3-0.2-5.8-1.3-8.5-2.8c-3.4-2-6.6-4.3-5-9c1.2-3.4,6.4-6.1,10.3-5.5
		C1132.3,27.2,1137.3,33.4,1136.9,39z"/>
	<path class="st0" d="M832.7,410.3c-1.3-11.7-2.7-23.4-4-35.1c-3.4-28.8-6.7-57.5-10.2-86.3c-0.5-4,0.1-5.5,4.6-5.5
		c16.6,0,33.3-1.2,49.9,1c22.8,2.9,34.7,14.4,38.8,37.1c1.1,6.1,2.2,12.1,3.2,18.2c0.2,1.2,1,2.9-0.7,3.5c-2.1,0.7-2.3-1.3-2.8-2.6
		c-3.9-10.4-7.1-21.1-15.2-29.5c-9.4-9.6-20.6-16.2-32.9-21.3c-2.1-0.9-4.3-0.8-6.4-0.6c-9.3,1-18.5,2.1-27.8,3.2
		c-2.2,0.3-4,0.5-2.6,3.6c9.2,20.8,10.5,42.8,9.6,65.1c-0.7,16.4-1.6,32.8-2.3,49.2C833.4,410.3,833,410.3,832.7,410.3z"/>
	<path class="st0" d="M861.1,436c0-4.1,0-7.4,0-10.6c0-35.8-0.1-71.5-0.1-107.3c0-1.2-0.7-2.9,0.5-3.7c1.6-1,2.7,0.7,3.8,1.5
		c6.2,4.4,10.3,10.6,12.7,17.5c10.8,30.1,9.4,59.7-5.1,88.4C870.4,427,866.9,431.8,861.1,436z"/>
	<path class="st0" d="M787.1,519.1c0.4,9.9,0.7,16.6,1,23.2c0.3,6.4-3.1,11-9.5,11.6c-4.9,0.5-10,0.1-15,0.1c-2.5,0-2.1-1.5-1.7-3
		c5.9-22.9,11.8-45.8,17.8-68.6c0.4-1.4,0.4-3.7,2.8-3.4c2.3,0.3,2,2.3,2.1,3.9C785.6,496.1,786.4,509.2,787.1,519.1z"/>
	<path class="st0" d="M724.7,166.5c-6.6,5.7-8.6,12.7-4.9,16.7c3,3.2,11,3.2,14.3,0c3.9-3.8,1.7-10.6-5.6-17.1
		c7.7-1.8,10.8-0.3,12.8,6.7c2.5,9.1,4.6,18.4,7.1,27.5c0.7,2.7,0,3.5-2.7,3.7c-11.5,0.8-22.9,1.7-34.4,2.6
		c-1.6,0.1-3.7,0.7-3.1-2.2c2-9.9,2.5-20.1,5.7-29.8C715.8,169.1,719.2,166.7,724.7,166.5z"/>
	<path class="st0" d="M244.4,261.5c-0.4,17.8-3.2,35-9.1,51.6c-1.1,3.2-2.6,3.8-5.8,3.4c-6.9-0.9-13.9-1.9-20.9-1.8
		c-11,0.2-21.4-2.5-31.9-5.2c-5.7-1.5-6.5-9.3-1.3-14.7c4.9-5,10.1-9.7,14.7-15c5.9-6.8,11.1-14.1,15.2-22.2
		c1.6-3.1,1.1-4.2-2.3-4.2c-2.5,0-5-0.4-7.5-0.4c-4.3,0-4.2-2.3-2.8-5.2c4-8.3,21.5-18,31.1-17.3c0.8,0.1,1.7,0.1,2.5,0.2
		c18.7,2.8,13.7-1.5,17.4,17.4C244.5,252.6,244.2,257.2,244.4,261.5z"/>
	<path class="st0" d="M409.5,439.9c2.6,1.6,3.4,4.1,3.8,6.6c0.8,4.4,1.3,8.9,2,13.3c1.2,6.9,5,11.9,11.7,14.2
		c3.1,1.1,4.1,2.3,3.2,5.7c-2.1,8.2-3.8,16.5-5.6,24.8c-0.2,1.1-0.2,2.6-1.8,2.5c-1.2-0.1-1.2-1.3-1.4-2.3
		c-4-21.2-8.1-42.4-12.1-63.6C409.2,440.8,409.4,440.5,409.5,439.9z"/>
	<path class="st0" d="M527,475.2c0-7,0-14,0-21c0-0.9-0.4-2.2,0.9-2.5c1.7-0.4,1.7,1.2,1.9,2.2c3.3,12.9,6.4,25.8,9.8,38.7
		c0.8,2.9-0.4,3.7-2.8,4.5c-9.9,3.3-9.8,3.3-9.8-7C527,485.2,527,480.2,527,475.2C527,475.2,527,475.2,527,475.2z"/>
	<path class="st0" d="M1107.1,243.4c0.4-0.3,0.7-0.2,0.9,0.3c0,0.1-0.1,0.3-0.2,0.4C1107.6,243.8,1107.4,243.5,1107.1,243.4
		C1107.2,243.3,1107.1,243.4,1107.1,243.4z"/>
	<path class="st0" d="M1075,519.5c0,39.7,0,79.3,0,119c0,6.7,0,13.4,1.5,19.9c2.4,10.1-1,19-4.5,28.1c-1,2.6-2.3,2.4-4.6,1.2
		c-11.4-6.3-16.5-16.5-18.2-28.8c-7.3-53.5-12.3-107.2-13.1-161.3c-0.8-52.8,1-105.6,3.4-158.4c0.3-6.1,3.2-9,9.2-9.8
		c12-1.5,18.4,4.1,20,16C1076.2,403.2,1075.1,461.3,1075,519.5z"/>
	<path class="st0" d="M1023.3,317.5c-0.3,0.7-0.7,0.8-1.3,0.3c-0.1-0.1,0.3-0.7,0.5-1C1022.8,317,1023.1,317.2,1023.3,317.5z"/>
	<path class="st0" d="M924.3,90.8c15.3,0.7,28.3,5.2,38.6,16.2c7.7,8.1,10.1,16.7,4.9,27.2c-3.2,6.4-6.5,12.7-9.7,19.1
		c-1.3,2.7-2.5,3.2-4.3,0.2c-11.6-18.6-24.7-36.4-35-55.8c-1.1-2-3.5-4.3-2.3-6.2c1.3-2.1,4.6-0.9,7-0.9
		C923.9,90.7,924.4,90.8,924.3,90.8z"/>
	<path class="st0" d="M619.1,59.3c0.3-0.5,0.6-0.9,1.4-0.6c0.8,0.4,1.2,0.8,0.8,1.7C620.3,60.4,619.4,60.3,619.1,59.3z"/>
</g>
</svg>
