<svg width="1440" height="821" viewBox="0 0 1440 821" fill="none" xmlns="http://www.w3.org/2000/svg">
<path d="M0 88.1919L58.2913 45.3208L12.4227 0L0 88.1919Z" transform="translate(773.146 490.73) scale(1 -1)" fill="#93B7AB" stroke="#93B7AB" stroke-width="1.51"/>
<path d="M86.0036 0L5.73357 8.57421L0 74.7181L86.0036 0Z" transform="translate(785.568 565.448) scale(1 -1)" fill="#A5B0C2" stroke="#A5B0C2" stroke-width="1.51"/>
<path d="M113.716 0L0 64.919L101.293 88.1919L113.716 0Z" transform="translate(671.853 490.73) scale(1 -1)" fill="#97B5B0" stroke="#97B5B0" stroke-width="1.51"/>
<path d="M0 42.8711L117.538 73.4933L58.2913 0L0 42.8711Z" transform="translate(773.146 445.409) scale(1 -1)" fill="#86BA9C" stroke="#86BA9C" stroke-width="1.51"/>
<path d="M45.8686 120.039L86.0036 0L0 74.7181L45.8686 120.039Z" transform="translate(785.568 565.448) scale(1 -1)" fill="#9CB3B6" stroke="#9CB3B6" stroke-width="1.51"/>
<path d="M15.2895 0L0 184.958L113.716 120.039L15.2895 0Z" transform="translate(671.853 610.769) scale(1 -1)" fill="#A8AFC6" stroke="#A8AFC6" stroke-width="1.51"/>
<path d="M0 0L31.5346 120.039L117.538 30.6222L0 0Z" transform="translate(773.146 402.538) scale(1 -1)" fill="#79B798" stroke="#79B798" stroke-width="1.51"/>
<path d="M108.938 80.8426L40.135 0L0 120.039L108.938 80.8426Z" transform="translate(831.437 565.448) scale(1 -1)" fill="#96B5AF" stroke="#96B5AF" stroke-width="1.51"/>
<path d="M0 140.862L108.938 120.039L77.4032 0L0 140.862Z" transform="translate(695.742 402.538) scale(1 -1)" fill="#78B29F" stroke="#78B29F" stroke-width="1.51"/>
<path d="M0 0V44.096L101.293 23.2729L0 0Z" transform="translate(671.853 425.811) scale(1 -1)" fill="#92B6AB" stroke="#92B6AB" stroke-width="1.51"/>
<path d="M59.2469 112.69L108.938 0L0 39.1964L59.2469 112.69Z" transform="translate(831.437 484.606) scale(1 -1)" fill="#86BA9D" stroke="#86BA9D" stroke-width="1.51"/>
<path d="M0 112.69L35.357 142.087L49.6909 0L0 112.69Z" transform="translate(890.684 484.606) scale(1 -1)" fill="#7ABC91" stroke="#7ABC91" stroke-width="1.51"/>
<path d="M3.82238 159.235L35.357 29.3973L0 0L3.82238 159.235Z" transform="translate(890.684 371.916) scale(1 -1)" fill="#64B68D" stroke="#64B68D" stroke-width="1.51"/>
<path d="M104.16 53.8951L0 0L98.4263 120.039L104.16 53.8951Z" transform="translate(687.142 610.769) scale(1 -1)" fill="#A9ABCA" stroke="#A9ABCA" stroke-width="1.51"/>
<path d="M83.1368 0L0 93.0915L104.16 146.987L83.1368 0Z" transform="translate(687.142 703.861) scale(1 -1)" fill="#A09FC6" stroke="#A09FC6" stroke-width="1.51"/>
<path d="M0 20.8231L23.8899 140.862L101.293 0L0 20.8231Z" transform="translate(671.853 402.538) scale(1 -1)" fill="#85B4A5" stroke="#85B4A5" stroke-width="1.51"/>
<path d="M61.1581 0L0 115.139L85.048 120.039L61.1581 0Z" transform="translate(610.695 381.715) scale(1 -1)" fill="#80AEAB" stroke="#80AEAB" stroke-width="1.51"/>
<path d="M55.4245 0L0 52.6702L55.4245 44.096V0Z" transform="translate(616.428 425.811) scale(1 -1)" fill="#96B6AE" stroke="#96B6AE" stroke-width="1.51"/>
<path d="M68.8028 0L0 170.259L53.5133 184.958L68.8028 0Z" transform="translate(618.339 610.769) scale(1 -1)" fill="#AAAEC9" stroke="#AAAEC9" stroke-width="1.51"/>
<path d="M1.91119 0L0 67.3688L55.4245 14.6987L1.91119 0Z" transform="translate(616.428 440.51) scale(1 -1)" fill="#9CB3B6" stroke="#9CB3B6" stroke-width="1.51"/>
<path d="M0 142.087L98.4263 58.7946L14.3339 0L0 142.087Z" transform="translate(926.041 484.606) scale(1 -1)" fill="#7AB995" stroke="#7AB995" stroke-width="1.51"/>
<path d="M0 129.838L64.0249 48.9955L31.5346 0L0 129.838Z" transform="translate(894.506 342.519) scale(1 -1)" fill="#5AB38D" stroke="#5AB38D" stroke-width="1.51"/>
<path d="M89.8259 159.235L86.0036 0L0 89.4168L89.8259 159.235Z" transform="translate(804.68 371.916) scale(1 -1)" fill="#64B391" stroke="#64B391" stroke-width="1.51"/>
<path d="M68.8028 3.67466L21.0231 0L0 173.934L68.8028 3.67466Z" transform="translate(618.339 614.444) scale(1 -1)" fill="#B2A7D6" stroke="#B2A7D6" stroke-width="1.51"/>
<path d="M60.2025 0L0 9.7991L21.0231 156.786L60.2025 0Z" transform="translate(770.279 713.66) scale(1 -1)" fill="#979BBE" stroke="#979BBE" stroke-width="1.51"/>
<path d="M51.6021 90.6417L0 0L3.82238 86.967L51.6021 90.6417Z" transform="translate(635.54 701.411) scale(1 -1)" fill="#A698D0" stroke="#A698D0" stroke-width="1.51"/>
<path d="M39.1794 0L0 156.786L80.27 148.211L39.1794 0Z" transform="translate(791.302 713.66) scale(1 -1)" fill="#9BA4BC" stroke="#9BA4BC" stroke-width="1.51"/>
<path d="M68.8028 106.565L91.7371 0L0 25.7226L68.8028 106.565Z" transform="translate(871.572 591.171) scale(1 -1)" fill="#9AB1B7" stroke="#9AB1B7" stroke-width="1.51"/>
<path d="M74.5364 39.1964L22.9343 0L0 106.565L74.5364 39.1964Z" transform="translate(940.375 591.171) scale(1 -1)" fill="#96B0B7" stroke="#96B0B7" stroke-width="1.51"/>
<path d="M26.7567 111.465L89.8259 69.8186L0 0L26.7567 111.465Z" transform="translate(804.68 282.499) scale(1 -1)" fill="#5BAF8D" stroke="#5BAF8D" stroke-width="1.51"/>
<path d="M125.183 51.4453L0 0L41.0906 148.211L125.183 51.4453Z" transform="translate(830.481 713.66) scale(1 -1)" fill="#91A0B4" stroke="#91A0B4" stroke-width="1.51"/>
<path d="M0 172.709L71.6696 111.465L44.913 0L0 172.709Z" transform="translate(759.767 282.499) scale(1 -1)" fill="#62AE89" stroke="#62AE89" stroke-width="1.51"/>
<path d="M83.1368 0H28.6679L0 93.0915L83.1368 0Z" transform="translate(687.142 703.861) scale(1 -1)" fill="#9C96C6" stroke="#9C96C6" stroke-width="1.51"/>
<path d="M0 40.4213L42.0462 89.4168L114.671 0L0 40.4213Z" transform="translate(673.764 793.277) scale(1 -1)" fill="#9285C3" stroke="#9285C3" stroke-width="1.51"/>
<path d="M0 20.8231L64.0249 172.709L108.938 0L0 20.8231Z" transform="translate(695.742 282.499) scale(1 -1)" fill="#67AC97" stroke="#67AC97" stroke-width="1.51"/>
<path d="M5.73357 8.57421L0 115.139L61.1581 0L5.73357 8.57421Z" transform="translate(610.695 381.715) scale(1 -1)" fill="#8BB1AF" stroke="#8BB1AF" stroke-width="1.51"/>
<path d="M0 96.7661L50.6465 106.565L56.3801 0L0 96.7661Z" transform="translate(560.048 373.141) scale(1 -1)" fill="#87ADB3" stroke="#87ADB3" stroke-width="1.51"/>
<path d="M72.6252 137.187L98.4263 0L0 83.2924L72.6252 137.187Z" transform="translate(926.041 425.811) scale(1 -1)" fill="#66B68D" stroke="#66B68D" stroke-width="1.51"/>
<path d="M91.7371 71.0435L84.0924 0L0 96.7661L91.7371 71.0435Z" transform="translate(871.572 662.214) scale(1 -1)" fill="#92A6B4" stroke="#92A6B4" stroke-width="1.51"/>
<path d="M39.1794 0L0 34.2969L7.64476 105.34L39.1794 0Z" transform="translate(955.664 696.511) scale(1 -1)" fill="#889EB1" stroke="#889EB1" stroke-width="1.51"/>
<path d="M84.0924 126.163L74.5364 0L0 67.3688L84.0924 126.163Z" transform="translate(940.375 551.974) scale(1 -1)" fill="#88B3A8" stroke="#88B3A8" stroke-width="1.51"/>
<path d="M32.4902 48.9955L72.6252 53.8951L0 0L32.4902 48.9955Z" transform="translate(926.041 342.519) scale(1 -1)" fill="#5CB48D" stroke="#5CB48D" stroke-width="1.51"/>
<path d="M0 172.709L48.7353 4.89955L8.60036 0L0 172.709Z" transform="translate(949.931 293.523) scale(1 -1)" fill="#48AE88" stroke="#48AE88" stroke-width="1.51"/>
<path d="M80.27 0L0 2.44977L51.6021 93.0915L80.27 0Z" transform="translate(635.54 703.861) scale(1 -1)" fill="#9F94CB" stroke="#9F94CB" stroke-width="1.51"/>
<path d="M126.139 0L0 80.8426L105.115 173.934L126.139 0Z" transform="translate(513.224 614.444) scale(1 -1)" fill="#B7A8DB" stroke="#B7A8DB" stroke-width="1.51"/>
<path d="M38.2238 0L0 51.4453L80.27 48.9955L38.2238 0Z" transform="translate(635.54 752.856) scale(1 -1)" fill="#998AC9" stroke="#998AC9" stroke-width="1.51"/>
<path d="M0 73.4933L47.7798 107.79L76.4476 0L0 73.4933Z" transform="translate(619.295 261.676) scale(1 -1)" fill="#72AA9E" stroke="#72AA9E" stroke-width="1.51"/>
<path d="M0 107.79L92.6927 151.886L28.6679 0L0 107.79Z" transform="translate(667.075 261.676) scale(1 -1)" fill="#6DAB91" stroke="#6DAB91" stroke-width="1.51"/>
<path d="M0 41.6462L118.494 91.8666L63.0693 0L0 41.6462Z" transform="translate(831.437 212.681) scale(1 -1)" fill="#54B078" stroke="#54B078" stroke-width="1.51"/>
<path d="M0 80.8426L55.4245 172.709L64.0249 0L0 80.8426Z" transform="translate(894.506 293.523) scale(1 -1)" fill="#4EAF81" stroke="#4EAF81" stroke-width="1.51"/>
<path d="M0 0L8.60036 78.3928L85.048 4.89955L0 0Z" transform="translate(610.695 266.576) scale(1 -1)" fill="#73A9AA" stroke="#73A9AA" stroke-width="1.51"/>
<path d="M50.6465 9.7991L0 0L59.2469 88.1919L50.6465 9.7991Z" transform="translate(560.048 276.375) scale(1 -1)" fill="#78A8B0" stroke="#78A8B0" stroke-width="1.51"/>
<path d="M0 52.6702L51.6021 96.7661L107.982 0L0 52.6702Z" transform="translate(508.446 373.141) scale(1 -1)" fill="#8DACB5" stroke="#8DACB5" stroke-width="1.51"/>
<path d="M0 0L101.293 79.6177L103.204 12.2489L0 0Z" transform="translate(515.135 452.759) scale(1 -1)" fill="#A2B1BF" stroke="#A2B1BF" stroke-width="1.51"/>
<path d="M72.6252 0L0 89.4168H54.4689L72.6252 0Z" transform="translate(715.81 793.277) scale(1 -1)" fill="#918ABF" stroke="#918ABF" stroke-width="1.51"/>
<path d="M0 137.187L61.1581 52.6702L25.8011 0L0 137.187Z" transform="translate(998.666 425.811) scale(1 -1)" fill="#63B68D" stroke="#63B68D" stroke-width="1.51"/>
<path d="M74.5364 84.5172L61.1581 0L0 1.22489L74.5364 84.5172Z" transform="translate(1014.91 553.199) scale(1 -1)" fill="#8AAEB1" stroke="#8AAEB1" stroke-width="1.51"/>
<path d="M60.2025 79.6177L18.1563 0L0 89.4168L60.2025 79.6177Z" transform="translate(770.279 793.277) scale(1 -1)" fill="#8E8ABB" stroke="#8E8ABB" stroke-width="1.51"/>
<path d="M61.1581 0L0 25.7226L42.0462 105.34L61.1581 0Z" transform="translate(788.435 819) scale(1 -1)" fill="#8782B6" stroke="#8782B6" stroke-width="1.51"/>
<path d="M70.714 0L0 58.7946L74.5364 86.967L70.714 0Z" transform="translate(564.826 701.411) scale(1 -1)" fill="#A794D4" stroke="#A794D4" stroke-width="1.51"/>
<path d="M64.0249 0L0 100.441L70.714 41.6462L64.0249 0Z" transform="translate(564.826 743.057) scale(1 -1)" fill="#A18CD2" stroke="#A18CD2" stroke-width="1.51"/>
<path d="M0 0L1.91119 80.8426L105.115 93.0915L0 0Z" transform="translate(513.224 533.601) scale(1 -1)" fill="#ADAACE" stroke="#ADAACE" stroke-width="1.51"/>
<path d="M125.183 97.991L97.4707 0L0 46.5457L125.183 97.991Z" transform="translate(830.481 760.205) scale(1 -1)" fill="#8894AF" stroke="#8894AF" stroke-width="1.51"/>
<path d="M66.8917 63.6941L0 0L27.7123 97.991L66.8917 63.6941Z" transform="translate(927.952 760.205) scale(1 -1)" fill="#8394AF" stroke="#8394AF" stroke-width="1.51"/>
<path d="M81.2256 143.312L0 0L20.0675 144.537L81.2256 143.312Z" transform="translate(994.844 696.511) scale(1 -1)" fill="#89A4B3" stroke="#89A4B3" stroke-width="1.51"/>
<path d="M51.6021 144.537L31.5346 0L0 105.34L51.6021 144.537Z" transform="translate(963.309 696.511) scale(1 -1)" fill="#8BA3B2" stroke="#8BA3B2" stroke-width="1.51"/>
<path d="M0 0L126.139 51.4453L171.052 41.6462L0 0Z" transform="translate(502.712 794.502) scale(1 -1)" fill="#997BD1" stroke="#997BD1" stroke-width="1.51"/>
<path d="M44.913 0L0 9.7991L6.68917 51.4453L44.913 0Z" transform="translate(628.851 752.856) scale(1 -1)" fill="#9A85CC" stroke="#9A85CC" stroke-width="1.51"/>
<path d="M51.6021 0L0 109.015L126.139 28.1724L51.6021 0Z" transform="translate(513.224 642.616) scale(1 -1)" fill="#B29CDD" stroke="#B29CDD" stroke-width="1.51"/>
<path d="M74.5364 83.2924L0 0L9.55595 126.163L74.5364 83.2924Z" transform="translate(1014.91 551.974) scale(1 -1)" fill="#82B2A6" stroke="#82B2A6" stroke-width="1.51"/>
<path d="M64.0249 86.967L65.9361 0L0 118.814L64.0249 86.967Z" transform="translate(883.995 120.814) scale(1 -1)" fill="#4EAF63" stroke="#4EAF63" stroke-width="1.51"/>
<path d="M0 84.5172L80.27 51.4453L61.1581 0L0 84.5172Z" transform="translate(998.666 373.141) scale(1 -1)" fill="#58B28C" stroke="#58B28C" stroke-width="1.51"/>
<path d="M35.357 95.5412L64.9805 0L0 42.8711L35.357 95.5412Z" transform="translate(1024.47 468.682) scale(1 -1)" fill="#70B596" stroke="#70B596" stroke-width="1.51"/>
<path d="M285.723 1.22489L0 0L171.051 41.6462L285.723 1.22489Z" transform="translate(502.712 794.502) scale(1 -1)" fill="#937ACA" stroke="#937ACA" stroke-width="1.51"/>
<path d="M97.4707 58.7946L19.1119 0L0 105.34L97.4707 58.7946Z" transform="translate(830.481 819) scale(1 -1)" fill="#8586B2" stroke="#8586B2" stroke-width="1.51"/>
<path d="M0 95.5412L103.204 35.5217L29.6234 0L0 95.5412Z" transform="translate(1059.82 468.682) scale(1 -1)" fill="#6CB396" stroke="#6CB396" stroke-width="1.51"/>
<path d="M86.9591 144.537L80.27 0L0 33.072L86.9591 144.537Z" transform="translate(998.666 321.696) scale(1 -1)" fill="#41AC8B" stroke="#41AC8B" stroke-width="1.51"/>
<path d="M0 69.8186L73.5808 132.288L80.27 0L0 69.8186Z" transform="translate(434.865 452.759) scale(1 -1)" fill="#97ACB5" stroke="#97ACB5" stroke-width="1.51"/>
<path d="M6.68917 0L0 132.288L107.982 79.6177L6.68917 0Z" transform="translate(508.446 452.759) scale(1 -1)" fill="#9AB0B7" stroke="#9AB0B7" stroke-width="1.51"/>
<path d="M0 0V135.963L59.2469 88.1919L0 0Z" transform="translate(560.048 276.375) scale(1 -1)" fill="#7BA7A7" stroke="#7BA7A7" stroke-width="1.51"/>
<path d="M0 61.2444L20.0675 128.613L71.6696 0L0 61.2444Z" transform="translate(759.767 171.034) scale(1 -1)" fill="#63AD74" stroke="#63AD74" stroke-width="1.51"/>
<path d="M0 39.1964L111.805 67.3688L91.7371 0L0 39.1964Z" transform="translate(668.03 109.79) scale(1 -1)" fill="#6AAC78" stroke="#6AAC78" stroke-width="1.51"/>
<path d="M0.955595 83.2924L92.6927 44.096L0 0L0.955595 83.2924Z" transform="translate(667.075 153.886) scale(1 -1)" fill="#6FAB81" stroke="#6FAB81" stroke-width="1.51"/>
<path d="M0 0L48.7353 117.589L47.7798 34.2969L0 0Z" transform="translate(619.295 188.183) scale(1 -1)" fill="#75A98E" stroke="#75A98E" stroke-width="1.51"/>
<path d="M0 47.7706L107.982 117.589L59.2469 0L0 47.7706Z" transform="translate(560.048 188.183) scale(1 -1)" fill="#79A991" stroke="#79A991" stroke-width="1.51"/>
<path d="M41.0906 0L0 41.6462L43.0018 80.8426L41.0906 0Z" transform="translate(472.133 533.601) scale(1 -1)" fill="#ADA5D1" stroke="#ADA5D1" stroke-width="1.51"/>
<path d="M0 0L28.6678 46.5457L69.7584 4.89955L0 0Z" transform="translate(443.465 538.501) scale(1 -1)" fill="#B1A1D9" stroke="#B1A1D9" stroke-width="1.51"/>
<path d="M0 0L125.183 140.862V4.89955L0 0Z" transform="translate(434.865 281.274) scale(1 -1)" fill="#78A3AF" stroke="#78A3AF" stroke-width="1.51"/>
<path d="M78.3588 58.7946L148.117 35.5217L0 0L78.3588 58.7946Z" transform="translate(849.593 819) scale(1 -1)" fill="#7E81AD" stroke="#7E81AD" stroke-width="1.51"/>
<path d="M66.8916 86.967L69.7584 0L0 23.2729L66.8916 86.967Z" transform="translate(927.952 783.478) scale(1 -1)" fill="#7D8AAD" stroke="#7D8AAD" stroke-width="1.51"/>
<path d="M88.8703 29.3973L2.86679 0L0 86.967L88.8703 29.3973Z" transform="translate(994.844 783.478) scale(1 -1)" fill="#7888AC" stroke="#7888AC" stroke-width="1.51"/>
<path d="M60.2025 169.034L86.9591 111.465L0 0L60.2025 169.034Z" transform="translate(998.666 288.624) scale(1 -1)" fill="#3DAB7D" stroke="#3DAB7D" stroke-width="1.51"/>
<path d="M52.5577 169.034L118.494 50.2204L0 0L52.5577 169.034Z" transform="translate(831.437 171.034) scale(1 -1)" fill="#54B065" stroke="#54B065" stroke-width="1.51"/>
<path d="M0 128.613L104.16 169.034L51.6021 0L0 128.613Z" transform="translate(779.835 171.034) scale(1 -1)" fill="#5DAF6C" stroke="#5DAF6C" stroke-width="1.51"/>
<path d="M0 1.22489L301.968 40.4213L197.808 0L0 1.22489Z" transform="translate(582.027 42.4213) scale(1 -1)" fill="#68AC76" stroke="#68AC76" stroke-width="1.51"/>
<path d="M37.2682 0L0 109.015L80.27 39.1964L37.2682 0Z" transform="translate(434.865 491.955) scale(1 -1)" fill="#A2A7C3" stroke="#A2A7C3" stroke-width="1.51"/>
<path d="M73.5808 0L0 39.1964L125.183 44.096L73.5808 0Z" transform="translate(434.865 320.471) scale(1 -1)" fill="#82A6B3" stroke="#82A6B3" stroke-width="1.51"/>
<path d="M0 0L20.0675 148.211L89.8259 153.111L0 0Z" transform="translate(423.398 686.712) scale(1 -1)" fill="#AD95DA" stroke="#AD95DA" stroke-width="1.51"/>
<path d="M0 0L89.8259 153.111L141.428 44.096L0 0Z" transform="translate(423.398 686.712) scale(1 -1)" fill="#AA93D9" stroke="#AA93D9" stroke-width="1.51"/>
<path d="M19.1119 111.465L103.204 0L0 60.0195L19.1119 111.465Z" transform="translate(1059.82 433.16) scale(1 -1)" fill="#5EB48D" stroke="#5EB48D" stroke-width="1.51"/>
<path d="M108.938 169.034L48.7353 0L0 167.81L108.938 169.034Z" transform="translate(949.931 288.624) scale(1 -1)" fill="#44AC78" stroke="#44AC78" stroke-width="1.51"/>
<path d="M0 0L77.4032 113.915L114.671 4.89955L0 0Z" transform="translate(357.462 496.855) scale(1 -1)" fill="#A1A2C6" stroke="#A1A2C6" stroke-width="1.51"/>
<path d="M0 86.967L110.849 1.22489L1.91119 0L0 86.967Z" transform="translate(948.02 120.814) scale(1 -1)" fill="#46AD62" stroke="#46AD62" stroke-width="1.51"/>
<path d="M13.3783 91.8666L135.694 0L0 7.34933L13.3783 91.8666Z" transform="translate(1076.07 560.549) scale(1 -1)" fill="#83ACB1" stroke="#83ACB1" stroke-width="1.51"/>
<path d="M81.2256 143.312L138.561 55.1199L0 0L81.2256 143.312Z" transform="translate(994.844 696.511) scale(1 -1)" fill="#819EB1" stroke="#819EB1" stroke-width="1.51"/>
<path d="M91.7371 138.412L84.0924 0L0 111.465L91.7371 138.412Z" transform="translate(1078.94 433.16) scale(1 -1)" fill="#52B18C" stroke="#52B18C" stroke-width="1.51"/>
<path d="M6.68917 144.537L54.4689 66.1439L0 0L6.68917 144.537Z" transform="translate(1078.94 321.696) scale(1 -1)" fill="#35A98A" stroke="#35A98A" stroke-width="1.51"/>
<path d="M37.2682 0L0 39.1964L30.579 111.465L37.2682 0Z" transform="translate(1133.41 294.748) scale(1 -1)" fill="#25A689" stroke="#25A689" stroke-width="1.51"/>
<path d="M135.694 80.8426L57.3357 0L0 88.1919L135.694 80.8426Z" transform="translate(1076.07 641.391) scale(1 -1)" fill="#7EA3B2" stroke="#7EA3B2" stroke-width="1.51"/>
<path d="M138.561 112.69L88.8703 0L0 57.5697L138.561 112.69Z" transform="translate(994.844 754.081) scale(1 -1)" fill="#7892AD" stroke="#7892AD" stroke-width="1.51"/>
<path d="M0 0L21.9787 99.2159L107.982 69.8186L0 0Z" transform="translate(560.048 140.412) scale(1 -1)" fill="#7AA988" stroke="#7AA988" stroke-width="1.51"/>
<path d="M86.0036 0L0 29.3973L197.808 28.1724L86.0036 0Z" transform="translate(582.027 70.5937) scale(1 -1)" fill="#72AA7F" stroke="#72AA7F" stroke-width="1.51"/>
<path d="M0 122.489L67.8472 99.2159L45.8686 0L0 122.489Z" transform="translate(514.179 140.412) scale(1 -1)" fill="#7CA68B" stroke="#7CA68B" stroke-width="1.51"/>
<path d="M0 0V101.666L73.5808 62.4693L0 0Z" transform="translate(434.865 382.94) scale(1 -1)" fill="#88A5B3" stroke="#88A5B3" stroke-width="1.51"/>
<path d="M54.4689 66.1439L91.7371 26.9475L0 0L54.4689 66.1439Z" transform="translate(1078.94 321.696) scale(1 -1)" fill="#40AB8A" stroke="#40AB8A" stroke-width="1.51"/>
<path d="M78.3588 72.2684L47.7798 0L0 78.3928L78.3588 72.2684Z" transform="translate(1085.63 255.552) scale(1 -1)" fill="#2EA77E" stroke="#2EA77E" stroke-width="1.51"/>
<path d="M126.139 51.4453L0 0L62.1137 151.886L126.139 51.4453Z" transform="translate(502.712 794.502) scale(1 -1)" fill="#9F83D6" stroke="#9F83D6" stroke-width="1.51"/>
<path d="M346.881 0L0 24.4978L285.723 25.7226L346.881 0Z" transform="translate(502.712 819) scale(1 -1)" fill="#8C77C2" stroke="#8C77C2" stroke-width="1.51"/>
<path d="M33.4458 0L0 47.7706L95.5595 151.886L33.4458 0Z" transform="translate(469.266 794.502) scale(1 -1)" fill="#9B7FD4" stroke="#9B7FD4" stroke-width="1.51"/>
<path d="M73.5808 127.388L122.316 0L0 91.8666L73.5808 127.388Z" transform="translate(1089.45 560.549) scale(1 -1)" fill="#77ADA6" stroke="#77ADA6" stroke-width="1.51"/>
<path d="M7.64476 138.412L37.2682 60.0195L0 0L7.64476 138.412Z" transform="translate(1163.03 433.16) scale(1 -1)" fill="#51B08C" stroke="#51B08C" stroke-width="1.51"/>
<path d="M0 40.4213L43.0018 60.0195L88.8703 0L0 40.4213Z" transform="translate(380.396 746.732) scale(1 -1)" fill="#987BD2" stroke="#987BD2" stroke-width="1.51"/>
<path d="M45.8686 0L0 60.0195L141.428 104.115L45.8686 0Z" transform="translate(423.398 746.732) scale(1 -1)" fill="#9F85D5" stroke="#9F85D5" stroke-width="1.51"/>
<path d="M0 0L16.2451 126.163L77.4032 113.915L0 0Z" transform="translate(357.462 496.855) scale(1 -1)" fill="#97A3BA" stroke="#97A3BA" stroke-width="1.51"/>
<path d="M61.1581 0L0 12.2489L61.1581 101.666V0Z" transform="translate(373.707 382.94) scale(1 -1)" fill="#8AA3B2" stroke="#8AA3B2" stroke-width="1.51"/>
<path d="M66.8917 113.915L70.714 0L0 7.34933L66.8917 113.915Z" transform="translate(1200.3 380.49) scale(1 -1)" fill="#40AC89" stroke="#40AC89" stroke-width="1.51"/>
<path d="M56.3801 156.786L78.3588 0L0 6.12444L56.3801 156.786Z" transform="translate(1085.63 183.283) scale(1 -1)" fill="#30A76A" stroke="#30A76A" stroke-width="1.51"/>
<path d="M83.1368 150.661L26.7567 0L0 57.5697L83.1368 150.661Z" transform="translate(1058.87 177.159) scale(1 -1)" fill="#36A964" stroke="#36A964" stroke-width="1.51"/>
<path d="M0 41.6462L114.671 46.5457L86.0036 0L0 41.6462Z" transform="translate(357.462 538.501) scale(1 -1)" fill="#AB9ED4" stroke="#AB9ED4" stroke-width="1.51"/>
<path d="M0 23.2729L86.9591 122.489L132.828 0L0 23.2729Z" transform="translate(427.22 140.412) scale(1 -1)" fill="#7AA28A" stroke="#7AA28A" stroke-width="1.51"/>
<path d="M0 85.7421L106.071 107.79L110.849 0L0 85.7421Z" transform="translate(948.02 119.589) scale(1 -1)" fill="#41AC62" stroke="#41AC62" stroke-width="1.51"/>
<path d="M0 31.8471L170.096 22.048L64.0249 0L0 31.8471Z" transform="translate(883.995 33.8472) scale(1 -1)" fill="#49AE62" stroke="#49AE62" stroke-width="1.51"/>
<path d="M49.6909 112.69L122.316 44.096L0 0L49.6909 112.69Z" transform="translate(1083.71 754.081) scale(1 -1)" fill="#708EAC" stroke="#708EAC" stroke-width="1.51"/>
<path d="M99.3819 24.4978L48.7353 0L0 127.388L99.3819 24.4978Z" transform="translate(1163.03 560.549) scale(1 -1)" fill="#76AAAB" stroke="#76AAAB" stroke-width="1.51"/>
<path d="M67.8472 0L0 23.2729L369.815 39.1964L67.8472 0Z" transform="translate(514.179 41.1964) scale(1 -1)" fill="#74AA81" stroke="#74AA81" stroke-width="1.51"/>
<path d="M0 164.135L132.828 140.862L7.64476 0L0 164.135Z" transform="translate(427.22 281.274) scale(1 -1)" fill="#77A0A0" stroke="#77A0A0" stroke-width="1.51"/>
<path d="M11.4671 0L0 91.8666L86.0036 50.2204L11.4671 0Z" transform="translate(357.462 588.721) scale(1 -1)" fill="#AE98DB" stroke="#AE98DB" stroke-width="1.51"/>
<path d="M54.4689 0L0 97.991L74.5364 148.211L54.4689 0Z" transform="translate(368.929 686.712) scale(1 -1)" fill="#A78ED8" stroke="#A78ED8" stroke-width="1.51"/>
<path d="M0 33.072L59.2469 164.135L66.8917 0L0 33.072Z" transform="translate(367.973 281.274) scale(1 -1)" fill="#729BA8" stroke="#729BA8" stroke-width="1.51"/>
<path d="M5.73357 0L0 122.489L66.8917 89.4168L5.73357 0Z" transform="translate(367.973 370.691) scale(1 -1)" fill="#7E9EB1" stroke="#7E9EB1" stroke-width="1.51"/>
<path d="M0 36.7466L50.6465 122.489L56.3801 0L0 36.7466Z" transform="translate(317.327 370.691) scale(1 -1)" fill="#809CB0" stroke="#809CB0" stroke-width="1.51"/>
<path d="M54.4689 19.5982L11.4671 0L0 117.589L54.4689 19.5982Z" transform="translate(368.929 706.31) scale(1 -1)" fill="#9D83D4" stroke="#9D83D4" stroke-width="1.51"/>
<path d="M0 11.024L52.5577 162.91L92.6927 0L0 11.024Z" transform="translate(264.769 496.855) scale(1 -1)" fill="#979BBE" stroke="#979BBE" stroke-width="1.51"/>
<path d="M0 0L30.579 40.4213L119.449 0H0Z" transform="translate(349.817 746.732) scale(1 -1)" fill="#9374D1" stroke="#9374D1" stroke-width="1.51"/>
<path d="M78.3588 149.436L72.6252 0L0 68.5937L78.3588 149.436Z" transform="translate(1133.41 709.985) scale(1 -1)" fill="#7399AF" stroke="#7399AF" stroke-width="1.51"/>
<path d="M6.68916 0L0 31.8471L93.6483 99.2159L6.68916 0Z" transform="translate(420.531 117.139) scale(1 -1)" fill="#779F89" stroke="#779F89" stroke-width="1.51"/>
<path d="M0 34.2969L59.2469 31.8471L65.9361 0L0 34.2969Z" transform="translate(361.284 117.139) scale(1 -1)" fill="#759B88" stroke="#759B88" stroke-width="1.51"/>
<path d="M128.05 75.943L99.3819 0L0 102.891L128.05 75.943Z" transform="translate(1163.03 536.051) scale(1 -1)" fill="#6BABA2" stroke="#6BABA2" stroke-width="1.51"/>
<path d="M5.73357 149.436L51.6021 4.89955L0 0L5.73357 149.436Z" transform="translate(1206.03 709.985) scale(1 -1)" fill="#6C94AD" stroke="#6C94AD" stroke-width="1.51"/>
<path d="M128.05 0L0 26.9475L37.2682 86.967L128.05 0Z" transform="translate(1163.03 460.108) scale(1 -1)" fill="#5DAF94" stroke="#5DAF94" stroke-width="1.51"/>
<path d="M0 107.79L87.9147 93.0915L4.77798 0L0 107.79Z" transform="translate(1054.09 119.589) scale(1 -1)" fill="#37A961" stroke="#37A961" stroke-width="1.51"/>
<path d="M96.5151 106.565L29.6234 0L0 78.3928L96.5151 106.565Z" transform="translate(1170.67 373.141) scale(1 -1)" fill="#38AA8A" stroke="#38AA8A" stroke-width="1.51"/>
<path d="M103.204 28.1724L6.68917 0L0 111.465L103.204 28.1724Z" transform="translate(1163.98 294.748) scale(1 -1)" fill="#19A588" stroke="#19A588" stroke-width="1.51"/>
<path d="M0 0L26.7567 58.7946L92.6927 24.4978L0 0Z" transform="translate(334.528 141.637) scale(1 -1)" fill="#73998C" stroke="#73998C" stroke-width="1.51"/>
<path d="M40.135 0L0 162.91L56.3801 126.163L40.135 0Z" transform="translate(317.327 496.855) scale(1 -1)" fill="#92A1B5" stroke="#92A1B5" stroke-width="1.51"/>
<path d="M0 0L71.6696 104.115L83.1368 12.2489L0 0Z" transform="translate(285.792 600.97) scale(1 -1)" fill="#A890D8" stroke="#A890D8" stroke-width="1.51"/>
<path d="M105.115 99.2159L103.204 0L0 83.2924L105.115 99.2159Z" transform="translate(1163.98 266.576) scale(1 -1)" fill="#0DA37E" stroke="#0DA37E" stroke-width="1.51"/>
<path d="M70.714 79.6177L90.7815 0L0 86.967L70.714 79.6177Z" transform="translate(1200.3 460.108) scale(1 -1)" fill="#56AF8C" stroke="#56AF8C" stroke-width="1.51"/>
<path d="M50.6465 169.034L45.8686 0L0 144.537L50.6465 169.034Z" transform="translate(1211.76 705.085) scale(1 -1)" fill="#739DAF" stroke="#739DAF" stroke-width="1.51"/>
<path d="M93.6483 131.063L20.0675 0L0 79.6177L93.6483 131.063Z" transform="translate(1271.01 460.108) scale(1 -1)" fill="#51B082" stroke="#51B082" stroke-width="1.51"/>
<path d="M77.4032 0L0 47.7706L65.9361 117.589L77.4032 0Z" transform="translate(302.993 706.31) scale(1 -1)" fill="#9C82D4" stroke="#9C82D4" stroke-width="1.51"/>
<path d="M152.895 0L0 47.7706H119.449L152.895 0Z" transform="translate(349.817 794.502) scale(1 -1)" fill="#9271D1" stroke="#9271D1" stroke-width="1.51"/>
<path d="M0 156.786L50.6465 133.513L21.9787 0L0 156.786Z" transform="translate(1142.01 183.283) scale(1 -1)" fill="#28A660" stroke="#28A660" stroke-width="1.51"/>
<path d="M75.492 39.1964L0 0L4.77798 169.034L75.492 39.1964Z" transform="translate(1257.63 705.085) scale(1 -1)" fill="#6F97A8" stroke="#6F97A8" stroke-width="1.51"/>
<path d="M122.316 86.967L135.694 0L0 42.8711L122.316 86.967Z" transform="translate(1083.71 796.952) scale(1 -1)" fill="#6782AA" stroke="#6782AA" stroke-width="1.51"/>
<path d="M86.0036 42.8711L221.698 0L0 13.4738L86.0036 42.8711Z" transform="translate(997.711 796.952) scale(1 -1)" fill="#6C7EAA" stroke="#6C7EAA" stroke-width="1.51"/>
<path d="M51.6021 91.8666L13.3783 0L0 86.967L51.6021 91.8666Z" transform="translate(1206.03 796.952) scale(1 -1)" fill="#6384AA" stroke="#6384AA" stroke-width="1.51"/>
<path d="M148.117 35.5217L369.815 22.048L0 0L148.117 35.5217Z" transform="translate(849.593 819) scale(1 -1)" fill="#727CAA" stroke="#727CAA" stroke-width="1.51"/>
<path d="M59.2469 0L0 2.44978L152.895 67.3688L59.2469 0Z" transform="translate(361.284 85.2923) scale(1 -1)" fill="#769D88" stroke="#769D88" stroke-width="1.51"/>
<path d="M0 106.565L92.6927 131.063L33.4458 0L0 106.565Z" transform="translate(334.528 248.202) scale(1 -1)" fill="#72999B" stroke="#72999B" stroke-width="1.51"/>
<path d="M0 24.4978L64.0249 106.565L97.4707 0L0 24.4978Z" transform="translate(270.503 248.202) scale(1 -1)" fill="#6E94A3" stroke="#6E94A3" stroke-width="1.51"/>
<path d="M46.8242 0L0 88.1919L77.4032 40.4213L46.8242 0Z" transform="translate(302.993 746.732) scale(1 -1)" fill="#9477D1" stroke="#9477D1" stroke-width="1.51"/>
<path d="M28.6678 133.513L105.115 15.9235L0 0L28.6678 133.513Z" transform="translate(1163.98 183.283) scale(1 -1)" fill="#1EA46B" stroke="#1EA46B" stroke-width="1.51"/>
<path d="M0 113.915L97.4707 51.4453L3.82238 0L0 113.915Z" transform="translate(1267.19 380.49) scale(1 -1)" fill="#3CAA82" stroke="#3CAA82" stroke-width="1.51"/>
<path d="M17.2007 0L0 57.5697L83.1368 69.8186L17.2007 0Z" transform="translate(285.792 658.54) scale(1 -1)" fill="#9F85D5" stroke="#9F85D5" stroke-width="1.51"/>
<path d="M46.8242 0L0 110.24L97.4707 85.7421L46.8242 0Z" transform="translate(270.503 333.945) scale(1 -1)" fill="#7196AE" stroke="#7196AE" stroke-width="1.51"/>
<path d="M21.0231 0L0 115.139L92.6927 104.115L21.0231 0Z" transform="translate(264.769 600.97) scale(1 -1)" fill="#A792D5" stroke="#A792D5" stroke-width="1.51"/>
<path d="M0 50.2204L36.3126 110.24L83.1368 0L0 50.2204Z" transform="translate(234.19 333.945) scale(1 -1)" fill="#7293AD" stroke="#7293AD" stroke-width="1.51"/>
<path d="M65.9361 0L0 22.048L92.6927 58.7946L65.9361 0Z" transform="translate(268.592 141.637) scale(1 -1)" fill="#70958B" stroke="#70958B" stroke-width="1.51"/>
<path d="M0 117.589L58.2913 132.288L76.4476 0L0 117.589Z" transform="translate(1192.65 167.36) scale(1 -1)" fill="#16A35F" stroke="#16A35F" stroke-width="1.51"/>
<path d="M0 23.2729L108.938 14.6987L50.6465 0L0 23.2729Z" transform="translate(1142.01 49.7707) scale(1 -1)" fill="#22A460" stroke="#22A460" stroke-width="1.51"/>
<path d="M182.519 20.8231L108.938 0L0 8.57421L182.519 20.8231Z" transform="translate(1142.01 35.0719) scale(1 -1)" fill="#16A35F" stroke="#16A35F" stroke-width="1.51"/>
<path d="M38.2238 91.8666L86.0036 34.2968L0 0L38.2238 91.8666Z" transform="translate(1219.41 796.952) scale(1 -1)" fill="#617FA6" stroke="#617FA6" stroke-width="1.51"/>
<path d="M100.337 79.6177L70.714 0L0 129.838L100.337 79.6177Z" transform="translate(1262.41 665.889) scale(1 -1)" fill="#759EA6" stroke="#759EA6" stroke-width="1.51"/>
<path d="M100.337 0L0 50.2204L28.6678 126.163L100.337 0Z" transform="translate(1262.41 586.271) scale(1 -1)" fill="#78A8A7" stroke="#78A8A7" stroke-width="1.51"/>
<path d="M75.492 96.7661L47.7798 0L0 57.5697L75.492 96.7661Z" transform="translate(1257.63 762.655) scale(1 -1)" fill="#6689A3" stroke="#6689A3" stroke-width="1.51"/>
<path d="M0 0L16.2451 56.3448L99.3819 6.12444L0 0Z" transform="translate(217.945 340.069) scale(1 -1)" fill="#7A95AE" stroke="#7A95AE" stroke-width="1.51"/>
<path d="M85.048 83.2924L97.4707 0L0 62.4693L85.048 83.2924Z" transform="translate(1267.19 329.045) scale(1 -1)" fill="#29A67D" stroke="#29A67D" stroke-width="1.51"/>
<path d="M85.048 20.8231L0 0L1.91119 99.2159L85.048 20.8231Z" transform="translate(1267.19 266.576) scale(1 -1)" fill="#0EA37C" stroke="#0EA37C" stroke-width="1.51"/>
<path d="M91.7371 122.489L83.1368 0L0 78.3928L91.7371 122.489Z" transform="translate(1269.1 245.753) scale(1 -1)" fill="#15A36C" stroke="#15A36C" stroke-width="1.51"/>
<path d="M27.7123 96.7661L26.7567 7.34933L0 0L27.7123 96.7661Z" transform="translate(1305.41 762.655) scale(1 -1)" fill="#6586A0" stroke="#6586A0" stroke-width="1.51"/>
<path d="M84.0924 123.714L71.6696 0L0 126.163L84.0924 123.714Z" transform="translate(1291.08 586.271) scale(1 -1)" fill="#73AA9D" stroke="#73AA9D" stroke-width="1.51"/>
<path d="M0 0L14.3339 166.585L61.1581 20.8231L0 0Z" transform="translate(203.611 506.654) scale(1 -1)" fill="#9394BD" stroke="#9394BD" stroke-width="1.51"/>
<path d="M46.8242 0L0 145.762L99.3819 151.886L46.8242 0Z" transform="translate(217.945 485.831) scale(1 -1)" fill="#8A9BB0" stroke="#8A9BB0" stroke-width="1.51"/>
<path d="M73.5808 133.513L84.0924 0L0 2.44977L73.5808 133.513Z" transform="translate(1291.08 462.558) scale(1 -1)" fill="#5BAF85" stroke="#5BAF85" stroke-width="1.51"/>
<path d="M81.2256 100.441L85.048 0L0 83.2924L81.2256 100.441Z" transform="translate(183.544 119.589) scale(1 -1)" fill="#6C8F85" stroke="#6C8F85" stroke-width="1.51"/>
<path d="M0 83.2924L65.9361 104.115L67.8472 0L0 83.2924Z" transform="translate(202.655 223.705) scale(1 -1)" fill="#6B8F95" stroke="#6B8F95" stroke-width="1.51"/>
<path d="M1.91119 0L0 104.115L65.9361 82.0675L1.91119 0Z" transform="translate(268.592 223.705) scale(1 -1)" fill="#6D9297" stroke="#6D9297" stroke-width="1.51"/>
<path d="M96.5151 0L0 63.6941L249.41 64.919L96.5151 0Z" transform="translate(264.769 82.8427) scale(1 -1)" fill="#749988" stroke="#749988" stroke-width="1.51"/>
<path d="M87.9147 0L0 15.9235L0.955595 105.34L87.9147 0Z" transform="translate(1332.17 771.229) scale(1 -1)" fill="#66859B" stroke="#66859B" stroke-width="1.51"/>
<path d="M86.0035 34.2969L200.675 25.7226L0 0L86.0035 34.2969Z" transform="translate(1219.41 796.952) scale(1 -1)" fill="#607A9F" stroke="#607A9F" stroke-width="1.51"/>
<path d="M82.1812 0L0 94.3163L61.1581 115.139L82.1812 0Z" transform="translate(203.611 600.97) scale(1 -1)" fill="#A48ED5" stroke="#A48ED5" stroke-width="1.51"/>
<path d="M0 13.4738L6.68917 94.3163L88.8703 0L0 13.4738Z" transform="translate(196.922 600.97) scale(1 -1)" fill="#A087D5" stroke="#A087D5" stroke-width="1.51"/>
<path d="M14.3339 51.4453L103.204 37.9715L0 0L14.3339 51.4453Z" transform="translate(182.588 638.941) scale(1 -1)" fill="#997FD3" stroke="#997FD3" stroke-width="1.51"/>
<path d="M98.4263 31.8471L0 0L51.6021 120.039L98.4263 31.8471Z" transform="translate(251.391 778.579) scale(1 -1)" fill="#8D6FCE" stroke="#8D6FCE" stroke-width="1.51"/>
<path d="M251.322 0L0 15.9235L98.4263 47.7706L251.322 0Z" transform="translate(251.391 794.502) scale(1 -1)" fill="#8C69CE" stroke="#8C69CE" stroke-width="1.51"/>
<path d="M72.6252 20.8231L309.613 37.9715L0 0L72.6252 20.8231Z" transform="translate(-58.222 816.55) scale(1 -1)" fill="#7245C6" stroke="#7245C6" stroke-width="1.51"/>
<path d="M0 19.5982L103.204 57.5697L120.405 0L0 19.5982Z" transform="translate(182.588 658.54) scale(1 -1)" fill="#997ED2" stroke="#997ED2" stroke-width="1.51"/>
<path d="M55.4245 153.111L91.7371 44.096L0 0L55.4245 153.111Z" transform="translate(1269.1 167.36) scale(1 -1)" fill="#15A357" stroke="#15A357" stroke-width="1.51"/>
<path d="M97.4707 158.01L70.714 0L0 58.7946L97.4707 158.01Z" transform="translate(1364.66 387.84) scale(1 -1)" fill="#3AAA73" stroke="#3AAA73" stroke-width="1.51"/>
<path d="M0 133.513L70.714 74.7181L10.5115 0L0 133.513Z" transform="translate(1364.66 462.558) scale(1 -1)" fill="#53B079" stroke="#53B079" stroke-width="1.51"/>
<path d="M3.82238 0L0 100.441L96.5151 36.7466L3.82238 0Z" transform="translate(264.769 119.589) scale(1 -1)" fill="#6F9386" stroke="#6F9386" stroke-width="1.51"/>
<path d="M249.41 1.22489L0 0L619.226 17.1484L249.41 1.22489Z" transform="translate(264.769 19.1483) scale(1 -1)" fill="#7DA68B" stroke="#7DA68B" stroke-width="1.51"/>
<path d="M0 143.312L67.8472 60.0195L31.5346 0L0 143.312Z" transform="translate(202.655 283.724) scale(1 -1)" fill="#688EA4" stroke="#688EA4" stroke-width="1.51"/>
<path d="M0 132.288L73.5808 153.111L18.1563 0L0 132.288Z" transform="translate(1250.94 167.36) scale(1 -1)" fill="#16A35A" stroke="#16A35A" stroke-width="1.51"/>
<path d="M0 14.6987L270.433 12.2489L87.9147 0L0 14.6987Z" transform="translate(1054.09 26.4977) scale(1 -1)" fill="#27A660" stroke="#27A660" stroke-width="1.51"/>
<path d="M0 12.2489L440.529 0L170.096 2.44977L0 12.2489Z" transform="translate(883.995 14.249) scale(1 -1)" fill="#37A961" stroke="#37A961" stroke-width="1.51"/>
<path d="M0 0L1.91119 140.862L69.7584 63.6942L0 0Z" transform="translate(133.853 570.348) scale(1 -1)" fill="#9A87CB" stroke="#9A87CB" stroke-width="1.51"/>
<path d="M18.1563 102.891L111.805 0L0 55.1199L18.1563 102.891Z" transform="translate(122.385 283.724) scale(1 -1)" fill="#6487A7" stroke="#6487A7" stroke-width="1.51"/>
<path d="M68.8028 0L0 139.637L120.405 120.039L68.8028 0Z" transform="translate(182.588 778.579) scale(1 -1)" fill="#8F73CE" stroke="#8F73CE" stroke-width="1.51"/>
<path d="M0 102.891L62.1137 143.312L93.6483 0L0 102.891Z" transform="translate(140.542 283.724) scale(1 -1)" fill="#67899F" stroke="#67899F" stroke-width="1.51"/>
<path d="M0 77.1679L82.1812 166.585L67.8472 0L0 77.1679Z" transform="translate(135.764 506.654) scale(1 -1)" fill="#8E91B8" stroke="#8E91B8" stroke-width="1.51"/>
<path d="M68.8028 0L23.8899 3.67466L0 139.637L68.8028 0Z" transform="translate(182.588 778.579) scale(1 -1)" fill="#8766CC" stroke="#8766CC" stroke-width="1.51"/>
<path d="M109.893 99.2159L12.4227 0L0 83.2924L109.893 99.2159Z" transform="translate(1352.24 329.045) scale(1 -1)" fill="#24A576" stroke="#24A576" stroke-width="1.51"/>
<path d="M12.4227 123.714L72.6252 84.5172L0 0L12.4227 123.714Z" transform="translate(1362.75 586.271) scale(1 -1)" fill="#77A99A" stroke="#77A99A" stroke-width="1.51"/>
<path d="M132.828 85.7421L86.9591 0L0 105.34L132.828 85.7421Z" transform="translate(1333.12 771.229) scale(1 -1)" fill="#698B96" stroke="#698B96" stroke-width="1.51"/>
<path d="M60.2025 113.915V0L0 39.1964L60.2025 113.915Z" transform="translate(1375.17 501.754) scale(1 -1)" fill="#65AD85" stroke="#65AD85" stroke-width="1.51"/>
<path d="M0 68.5937L63.0693 51.4453L48.7353 0L0 68.5937Z" transform="translate(133.853 638.941) scale(1 -1)" fill="#987BD2" stroke="#987BD2" stroke-width="1.51"/>
<path d="M0 17.1484L69.7584 80.8426L63.0693 0L0 17.1484Z" transform="translate(133.853 587.496) scale(1 -1)" fill="#9F83D5" stroke="#9F83D5" stroke-width="1.51"/>
<path d="M0 0L23.8899 86.967L72.6252 18.3733L0 0Z" transform="translate(109.963 657.315) scale(1 -1)" fill="#9374D0" stroke="#9374D0" stroke-width="1.51"/>
<path d="M72.6252 84.5172L99.3819 34.2969L0 0L72.6252 84.5172Z" transform="translate(1362.75 586.271) scale(1 -1)" fill="#7CA69D" stroke="#7CA69D" stroke-width="1.51"/>
<path d="M132.828 0L0 19.5982L29.6234 99.2159L132.828 0Z" transform="translate(1333.12 685.487) scale(1 -1)" fill="#70969B" stroke="#70969B" stroke-width="1.51"/>
<path d="M26.7567 15.9235L114.671 0L0 8.57421L26.7567 15.9235Z" transform="translate(1305.41 771.229) scale(1 -1)" fill="#627E9B" stroke="#627E9B" stroke-width="1.51"/>
<path d="M0 111.465L111.805 56.3448L95.5595 0L0 111.465Z" transform="translate(122.385 340.069) scale(1 -1)" fill="#6E8CAC" stroke="#6E8CAC" stroke-width="1.51"/>
<path d="M19.1119 0L0 104.115L85.048 20.8231L19.1119 0Z" transform="translate(183.544 140.412) scale(1 -1)" fill="#6C8C85" stroke="#6C8C85" stroke-width="1.51"/>
<path d="M0 62.4693L57.3357 104.115L76.4476 0L0 62.4693Z" transform="translate(126.208 140.412) scale(1 -1)" fill="#6A8884" stroke="#6A8884" stroke-width="1.51"/>
<path d="M8.60036 122.489L109.893 15.9235L0 0L8.60036 122.489Z" transform="translate(1352.24 245.753) scale(1 -1)" fill="#16A369" stroke="#16A369" stroke-width="1.51"/>
<path d="M0 113.915L111.805 4.89955L0 0V113.915Z" transform="translate(1435.37 501.754) scale(1 -1)" fill="#69AC81" stroke="#69AC81" stroke-width="1.51"/>
<path d="M103.204 96.7661L101.293 0L0 106.565L103.204 96.7661Z" transform="translate(1360.84 229.829) scale(1 -1)" fill="#16A35B" stroke="#16A35B" stroke-width="1.51"/>
<path d="M61.1581 0L0 28.1724L37.2682 135.963L61.1581 0Z" transform="translate(145.32 774.904) scale(1 -1)" fill="#8765CC" stroke="#8765CC" stroke-width="1.51"/>
<path d="M14.3339 0L0 102.891L76.4476 40.4213L14.3339 0Z" transform="translate(126.208 180.834) scale(1 -1)" fill="#69868D" stroke="#69868D" stroke-width="1.51"/>
<path d="M0 0L22.9343 140.862L118.494 29.3973L0 0Z" transform="translate(99.4512 369.466) scale(1 -1)" fill="#738AAC" stroke="#738AAC" stroke-width="1.51"/>
<path d="M0 60.0195L118.494 89.4168L36.3126 0L0 60.0195Z" transform="translate(99.4512 429.486) scale(1 -1)" fill="#838FAE" stroke="#838FAE" stroke-width="1.51"/>
<path d="M0 109.015L107.027 36.7466L36.3126 0L0 109.015Z" transform="translate(1324.52 123.264) scale(1 -1)" fill="#13A34F" stroke="#13A34F" stroke-width="1.51"/>
<path d="M0 80.8426L91.7371 140.862L89.8259 0L0 80.8426Z" transform="translate(44.0266 570.348) scale(1 -1)" fill="#9682C9" stroke="#9682C9" stroke-width="1.51"/>
<path d="M0 0L55.4245 120.039L91.7371 60.0195L0 0Z" transform="translate(44.0266 489.505) scale(1 -1)" fill="#8A87B7" stroke="#8A87B7" stroke-width="1.51"/>
<path d="M99.3819 133.513L103.204 0L0 99.2159L99.3819 133.513Z" transform="translate(1362.75 685.487) scale(1 -1)" fill="#759C98" stroke="#759C98" stroke-width="1.51"/>
<path d="M26.7567 158.01L56.3801 36.7466L0 0L26.7567 158.01Z" transform="translate(1435.37 387.84) scale(1 -1)" fill="#3CAA6E" stroke="#3CAA6E" stroke-width="1.51"/>
<path d="M35.357 0L0 89.4168L72.6252 107.79L35.357 0Z" transform="translate(109.963 746.732) scale(1 -1)" fill="#8A6ACD" stroke="#8A6ACD" stroke-width="1.51"/>
<path d="M70.714 46.5457L103.204 0L0 9.7991L70.714 46.5457Z" transform="translate(1360.84 133.063) scale(1 -1)" fill="#13A34D" stroke="#13A34D" stroke-width="1.51"/>
<path d="M111.805 55.1199L26.7567 0L0 50.2204L111.805 55.1199Z" transform="translate(1435.37 551.974) scale(1 -1)" fill="#77A98F" stroke="#77A98F" stroke-width="1.51"/>
<path d="M111.805 0L0 109.015L56.3801 145.762L111.805 0Z" transform="translate(1435.37 496.855) scale(1 -1)" fill="#59AF71" stroke="#59AF71" stroke-width="1.51"/>
<path d="M0 105.34L76.4476 47.7706L58.2913 0L0 105.34Z" transform="translate(64.0941 228.604) scale(1 -1)" fill="#658198" stroke="#658198" stroke-width="1.51"/>
<path d="M0 57.5697L62.1137 102.891L76.4476 0L0 57.5697Z" transform="translate(64.0941 180.834) scale(1 -1)" fill="#67818B" stroke="#67818B" stroke-width="1.51"/>
<path d="M0 0L12.4227 82.0675L102.249 1.22489L0 0Z" transform="translate(31.6039 571.573) scale(1 -1)" fill="#9A79D4" stroke="#9A79D4" stroke-width="1.51"/>
<path d="M85.048 0L0 85.7421L107.982 140.862L85.048 0Z" transform="translate(14.4032 369.466) scale(1 -1)" fill="#6C81AA" stroke="#6C81AA" stroke-width="1.51"/>
<path d="M45.8686 120.039L78.3588 0L0 34.2969L45.8686 120.039Z" transform="translate(1420.08 805.526) scale(1 -1)" fill="#66808E" stroke="#66808E" stroke-width="1.51"/>
<path d="M200.675 34.2969L279.034 0L0 8.57421L200.675 34.2969Z" transform="translate(1219.41 805.526) scale(1 -1)" fill="#617797" stroke="#617797" stroke-width="1.51"/>
<path d="M369.815 22.048L648.849 13.4738L0 0L369.815 22.048Z" transform="translate(849.593 819) scale(1 -1)" fill="#5F75A8" stroke="#5F75A8" stroke-width="1.51"/>
<path d="M10.5115 0L0 127.388L65.9361 120.039L10.5115 0Z" transform="translate(33.5151 489.505) scale(1 -1)" fill="#8485B1" stroke="#8485B1" stroke-width="1.51"/>
<path d="M60.2025 0L0 40.4213L49.6909 127.388L60.2025 0Z" transform="translate(-16.1758 489.505) scale(1 -1)" fill="#877FB7" stroke="#877FB7" stroke-width="1.51"/>
<path d="M78.3588 0L0 85.7421L102.249 86.967L78.3588 0Z" transform="translate(31.6039 657.315) scale(1 -1)" fill="#9372D1" stroke="#9372D1" stroke-width="1.51"/>
<path d="M0 0V85.7421L78.3588 0H0Z" transform="translate(31.6039 657.315) scale(1 -1)" fill="#8C6ACE" stroke="#8C6ACE" stroke-width="1.51"/>
<path d="M0 0L49.6909 160.46L107.982 55.1199L0 0Z" transform="translate(14.4032 283.724) scale(1 -1)" fill="#617DA0" stroke="#617DA0" stroke-width="1.51"/>
<path d="M0 0L17.2007 138.412H95.5595L0 0Z" transform="translate(14.4032 795.727) scale(1 -1)" fill="#805BCA" stroke="#805BCA" stroke-width="1.51"/>
<path d="M19.1119 7.34933L0 85.7421L85.048 0L19.1119 7.34933Z" transform="translate(14.4032 369.466) scale(1 -1)" fill="#7582AC" stroke="#7582AC" stroke-width="1.51"/>
<path d="M7.64476 67.3688L74.5364 60.0195L0 0L7.64476 67.3688Z" transform="translate(-60.1332 343.744) scale(1 -1)" fill="#6776A9" stroke="#6776A9" stroke-width="1.51"/>
<path d="M0 122.489L60.2025 82.0675L47.7798 0L0 122.489Z" transform="translate(-16.1758 571.573) scale(1 -1)" fill="#9178C9" stroke="#9178C9" stroke-width="1.51"/>
<path d="M0 15.9235L94.6039 62.4693L113.716 0L0 15.9235Z" transform="translate(-49.6216 123.264) scale(1 -1)" fill="#647882" stroke="#647882" stroke-width="1.51"/>
<path d="M19.1119 0L0 62.4693L81.2256 45.3208L19.1119 0Z" transform="translate(44.9822 123.264) scale(1 -1)" fill="#667E83" stroke="#667E83" stroke-width="1.51"/>
<path d="M81.2256 0L0 17.1484L138.561 41.6462L81.2256 0Z" transform="translate(44.9822 77.9429) scale(1 -1)" fill="#688283" stroke="#688283" stroke-width="1.51"/>
<path d="M246.544 2.44977L0 0L327.769 19.5982L246.544 2.44977Z" transform="translate(-63 38.7465) scale(1 -1)" fill="#698383" stroke="#698383" stroke-width="1.51"/>
<path d="M0 15.9235L42.0462 122.489L89.8259 0L0 15.9235Z" transform="translate(-58.222 571.573) scale(1 -1)" fill="#9372CF" stroke="#9372CF" stroke-width="1.51"/>
<path d="M64.0249 0L0 176.384L113.716 160.46L64.0249 0Z" transform="translate(-49.6216 283.724) scale(1 -1)" fill="#617795" stroke="#617795" stroke-width="1.51"/>
<path d="M0 46.5457L119.449 102.891L32.4902 0L0 46.5457Z" transform="translate(1431.55 133.063) scale(1 -1)" fill="#0BA340" stroke="#0BA340" stroke-width="1.51"/>
<path d="M0 72.2684L226.476 56.3448L107.027 0L0 72.2684Z" transform="translate(1324.52 86.5173) scale(1 -1)" fill="#0FA346" stroke="#0FA346" stroke-width="1.51"/>
<path d="M89.8259 0L0 101.666L89.8259 85.7421V0Z" transform="translate(-58.222 657.315) scale(1 -1)" fill="#8E68CF" stroke="#8E68CF" stroke-width="1.51"/>
<path d="M130.917 48.9955L0 0L95.5595 138.412L130.917 48.9955Z" transform="translate(14.4032 795.727) scale(1 -1)" fill="#7E58C9" stroke="#7E58C9" stroke-width="1.51"/>
<path d="M192.075 20.8231L0 0L130.917 48.9955L192.075 20.8231Z" transform="translate(14.4032 795.727) scale(1 -1)" fill="#7A52C8" stroke="#7A52C8" stroke-width="1.51"/>
<path d="M236.988 17.1484L0 0L192.075 20.8231L236.988 17.1484Z" transform="translate(14.4032 795.727) scale(1 -1)" fill="#7B53C9" stroke="#7B53C9" stroke-width="1.51"/>
<path d="M0 0L309.613 37.9715L560.934 22.048L0 0Z" transform="translate(-58.222 816.55) scale(1 -1)" fill="#7F58CA" stroke="#7F58CA" stroke-width="1.51"/>
<path d="M47.7798 0L0 89.4168L64.9805 138.412L47.7798 0Z" transform="translate(-33.3765 795.727) scale(1 -1)" fill="#7A52C8" stroke="#7A52C8" stroke-width="1.51"/>
<path d="M0 105.34L93.6483 86.967L43.9574 0L0 105.34Z" transform="translate(-60.1332 449.084) scale(1 -1)" fill="#7D7EAC" stroke="#7D7EAC" stroke-width="1.51"/>
<path d="M0 18.3733L74.5364 78.3928L93.6483 0L0 18.3733Z" transform="translate(-60.1332 362.117) scale(1 -1)" fill="#707BAA" stroke="#707BAA" stroke-width="1.51"/>
<path d="M24.8455 0L0 150.661L89.8259 48.9955L24.8455 0Z" transform="translate(-58.222 706.31) scale(1 -1)" fill="#855FCC" stroke="#855FCC" stroke-width="1.51"/>
<path d="M0 7.34933L2.86679 176.384L66.8917 0L0 7.34933Z" transform="translate(-52.4885 283.724) scale(1 -1)" fill="#5B73A2" stroke="#5B73A2" stroke-width="1.51"/>
<path d="M72.6252 20.8231L0 0L24.8455 110.24L72.6252 20.8231Z" transform="translate(-58.222 816.55) scale(1 -1)" fill="#6F40C6" stroke="#6F40C6" stroke-width="1.51"/>
<path d="M907.815 0L0 2.44977L560.934 24.4977L907.815 0Z" transform="translate(-58.222 819) scale(1 -1)" fill="#8B64CE" stroke="#8B64CE" stroke-width="1.51"/>
<path d="M13.3783 0L0 68.5937L107.982 46.5457L13.3783 0Z" transform="translate(-63 107.34) scale(1 -1)" fill="#627482" stroke="#627482" stroke-width="1.51"/>
<path d="M107.982 0L0 22.048L246.544 24.4977L107.982 0Z" transform="translate(-63 60.7946) scale(1 -1)" fill="#667C82" stroke="#667C82" stroke-width="1.51"/>
</svg>
