<svg width="2351" height="1124" viewBox="0 0 2351 1124" fill="none" xmlns="http://www.w3.org/2000/svg">
<path d="M603.44 9.54392L0 0L484.58 245.756L603.44 9.54392Z" transform="translate(33.0005 247.757) scale(1 -1)" fill="#859CB1" stroke="#859CB1" stroke-width="1.51"/>
<path d="M521.152 2.38598L118.859 0L0 236.212L521.152 2.38598Z" transform="translate(517.581 238.212) scale(1 -1)" fill="#7E9BAF" stroke="#7E9BAF" stroke-width="1.51"/>
<path d="M534.867 81.1233L0 0L64.0012 188.492L534.867 81.1233Z" transform="translate(46.7153 503.056) scale(1 -1)" fill="#8191AE" stroke="#8191AE" stroke-width="1.51"/>
<path d="M525.724 183.72L470.866 0L0 107.369L525.724 183.72Z" transform="translate(110.716 421.933) scale(1 -1)" fill="#7F95AE" stroke="#7F95AE" stroke-width="1.51"/>
<path d="M470.866 136.001L0 0L54.8582 183.72L470.866 136.001Z" transform="translate(581.583 421.933) scale(1 -1)" fill="#7893AD" stroke="#7893AD" stroke-width="1.51"/>
<path d="M402.293 50.1056L416.008 0L0 47.7196L402.293 50.1056Z" transform="translate(636.44 285.932) scale(1 -1)" fill="#7795AE" stroke="#7795AE" stroke-width="1.51"/>
<path d="M315.434 0L0 76.3514L160.003 293.476L315.434 0Z" transform="translate(892.444 579.406) scale(1 -1)" fill="#6E89AB" stroke="#6E89AB" stroke-width="1.51"/>
<path d="M534.867 193.264L589.725 0L0 112.141L534.867 193.264Z" transform="translate(46.7153 615.197) scale(1 -1)" fill="#7A8AAD" stroke="#7A8AAD" stroke-width="1.51"/>
<path d="M470.866 217.124L310.863 0L0 81.1233L470.866 217.124Z" transform="translate(581.583 503.056) scale(1 -1)" fill="#748EAC" stroke="#748EAC" stroke-width="1.51"/>
<path d="M485 0L0 182.923L424.375 369L485 0Z" transform="translate(1039 464) scale(1 -1)" fill="#6F93AD" stroke="#6F93AD" stroke-width="1.51"/>
<path d="M310.863 112.141L54.8582 0L0 193.264L310.863 112.141Z" transform="translate(581.583 615.197) scale(1 -1)" fill="#7488AC" stroke="#7488AC" stroke-width="1.51"/>
<path d="M452.58 188.492L50.2866 0L0 279.16L452.58 188.492Z" transform="translate(1390.74 374.213) scale(1 -1)" fill="#6A92AB" stroke="#6A92AB" stroke-width="1.51"/>
<path d="M256.005 295.861L434.294 0L0 183.72L256.005 295.861Z" transform="translate(636.44 798.917) scale(1 -1)" fill="#6D80AA" stroke="#6D80AA" stroke-width="1.51"/>
<path d="M414.989 611.618L704 0L0 379.795L414.989 611.618Z" transform="translate(857.699 1123.71) scale(1 -1) rotate(25.5324)" fill="#6D80AA" stroke="#6D80AA" stroke-width="1.51"/>
<path d="M612.583 47.7196L0 0L635.44 195.65L612.583 47.7196Z" transform="translate(1 810.847) scale(1 -1)" fill="#747DAB" stroke="#747DAB" stroke-width="1.51"/>
<path d="M635.44 195.65L0 0L45.7151 307.791L635.44 195.65Z" transform="translate(1 810.847) scale(1 -1)" fill="#7B83AC" stroke="#7B83AC" stroke-width="1.51"/>
<path d="M347.435 147.931L0 0L233.147 205.194L347.435 147.931Z" transform="translate(1207.88 579.406) scale(1 -1)" fill="#6586AA" stroke="#6586AA" stroke-width="1.51"/>
<path d="M388.579 205.194L155.431 0L0 293.476L388.579 205.194Z" transform="translate(1052.45 579.406) scale(1 -1)" fill="#6B8BAB" stroke="#6B8BAB" stroke-width="1.51"/>
<path d="M457.151 0L0 35.7897L22.8576 183.72L457.151 0Z" transform="translate(613.583 798.917) scale(1 -1)" fill="#6C7BAA" stroke="#6C7BAA" stroke-width="1.51"/>
<path d="M455.341 317L889 150.806L0 0L455.341 317Z" transform="translate(1229 503) scale(1 -1)" fill="#698FA3" stroke="#698FA3" stroke-width="1.51"/>
<path d="M612.583 47.7196L1069.73 11.9299L0 0L612.583 47.7196Z" transform="translate(1 810.847) scale(1 -1)" fill="#6F79A9" stroke="#6F79A9" stroke-width="1.51"/>
<path d="M214.861 14.3159L0 0L137.145 219.51L214.861 14.3159Z" transform="translate(1070.73 798.917) scale(1 -1)" fill="#6378A8" stroke="#6378A8" stroke-width="1.51"/>
<path d="M365.721 0L0 52.4916L347.435 200.422L365.721 0Z" transform="translate(1207.88 631.9) scale(1 -1)" fill="#6180A9" stroke="#6180A9" stroke-width="1.51"/>
<path d="M219.433 0L0 73.9654L580.582 157.475L219.433 0Z" transform="translate(1573.6 705.865) scale(1 -1)" fill="#607CA0" stroke="#607CA0" stroke-width="1.51"/>
<path d="M365.721 152.703L77.7157 0L0 205.194L365.721 152.703Z" transform="translate(1207.88 784.601) scale(1 -1)" fill="#607AA9" stroke="#607AA9" stroke-width="1.51"/>
<path d="M598.868 83.5093L18.2861 0L0 200.422L598.868 83.5093Z" transform="translate(1555.31 631.9) scale(1 -1)" fill="#6281A3" stroke="#6281A3" stroke-width="1.51"/>
<path d="M288.005 152.703L507.438 78.7373L0 0L288.005 152.703Z" transform="translate(1285.59 784.601) scale(1 -1)" fill="#5C77A7" stroke="#5C77A7" stroke-width="1.51"/>
<path d="M598.868 0L0 116.913L562.296 233.826L598.868 0Z" transform="translate(1555.31 548.39) scale(1 -1)" fill="#66879F" stroke="#66879F" stroke-width="1.51"/>
<path d="M507.438 126.457L877.73 0L0 47.7196L507.438 126.457Z" transform="translate(1285.59 832.321) scale(1 -1)" fill="#5B73A2" stroke="#5B73A2" stroke-width="1.51"/>
<path d="M1069.73 62.0355L2349.76 0L0 50.1056L1069.73 62.0355Z" transform="translate(1 860.952) scale(1 -1)" fill="#6173A8" stroke="#6173A8" stroke-width="1.51"/>
</svg>
